<svg id="Capa_1" enable-background="new 0 0 511.82 511.82" height="512" viewBox="0 0 511.82 511.82" width="512" xmlns="http://www.w3.org/2000/svg"><g><path d="m160.419 136.82h16.67v213.94c9.975-.73 20.315-.12 30 1.74v-117.86h16.67c49.71 0 90.15-40.44 90.15-90.15v-46.67c-40.573.834-74.07-6.418-106.82 23.05 0-2.624 0-33.565 0-35.05h-.11c-2.26-47.71-41.78-85.82-90.04-85.82h-46.67v46.67c0 49.71 40.44 90.15 90.15 90.15z"/><path d="m349.399 355.62 8.77-67.23c-22.53-4.01-46.6 2.67-63.96 20.03l-55.18 55.18c24.87 12.98 44.71 34.82 54.89 61.94 24.938-1.144 48.092 4.689 67.52 20.44l35.16-35.16c17.36-17.37 24.04-41.44 20.04-63.97z"/><path d="m388.139 290.56c-.818 6.225-3.108 23.805-3.95 30.27 6.555-.854 23.971-3.122 30.28-3.95 2.736-2.738 9.334-9.328 12.14-12.13l-26.33-26.33z"/><path d="m501.639 203.38c-7.257-7.252-19.074-7.257-26.33 0 0 0-53.82 53.83-53.82 53.83l26.33 26.33 53.82-53.83c7.219-6.936 7.214-19.398 0-26.33z"/><path d="m351.119 477.51c-11.942-13.882-29.511-22.023-48-21.97-5.595-.002-25.781.001-31.7 0-19.259-100.06-152.674-100.009-171.92 0h-31.69c-32.56 0-59.47 24.66-63.04 56.28h361.39c-1.424-12.74-6.647-24.655-15.04-34.31z"/></g></svg>