<svg id="Layer_1" enable-background="new 0 0 53 53" height="512" viewBox="0 0 53 53" width="512" xmlns="http://www.w3.org/2000/svg"><g id="_x31_1"><path d="m45 42.7321014c-1.0900269 0-2.1099854.3599854-2.9400024.9799805-.1099854.0700073-.2200317.1599731-.3300171.25-.0599976-2.6599731-2.2600098-4.8099976-4.9400024-4.8099976-1.2399902 0-2.3999634.4500122-3.2699585 1.2399902-.0700073-1.960022-.9400024-3.710022-2.2900391-4.9299927-1.2399903-1.1500243-2.8999634-1.830017-4.7299805-1.830017-3.789978 0-6.8900146 2.9800415-7.0299683 6.75-.4000244-.3599854-.8500366-.6499634-1.3400269-.8499756-.0015259-.0006104-.0031738-.0008545-.0046997-.0014648v-9.7531738l.3308105-.2185059c1.9232788.3740845 5.541687.7401123 8.1235962-1.046875 3.0646362-2.1126709 3.6886597-6.5962524 3.8111572-8.0178223.0222778-.2589111-.1452637-.4957275-.3969116-.5602417-1.4008179-.3590088-5.9518433-1.288269-9.024231.8380737-1.3909912.9627075-2.27771 2.4121094-2.8444214 3.8413696v-9.427125l.3596802-.3060913c1.5633545.1133423 4.1494141.0297852 5.8847046-1.4481812 2.1314697-1.8153687 2.3121948-5.1677246 2.3041382-6.3734131-.00177-.2636719-.192627-.482666-.4536743-.5200806-1.2119141-.1739502-4.6522217-.4694824-6.7904663 1.3435059-.5616455.4783325-.9813843 1.0662231-1.3043823 1.6913452v-5.0683592c0-.5522459-.4477539-.9999998-1-.9999998s-1 .4477539-1 .9999998v5.2086182c-.3307495-.6776733-.7720947-1.3175659-1.3756104-1.831604-2.1381835-1.8129883-5.5784911-1.5174561-6.7904051-1.3435059-.2609864.0374146-.4519043.2564087-.4536744.5200806-.0080566 1.2056274.1726075 4.5579834 2.3040772 6.3734131 1.7641602 1.5025635 4.4092407 1.56427 5.9632568 1.442688l.352356.2937012v9.4395761c-.5686035-1.4274902-1.4563599-2.8744507-2.8455811-3.8359375-3.0723877-2.1263428-7.6234741-1.1970825-9.024231-.8380737-.251709.0645142-.4192505.3013306-.3969727.5602417.1224976 1.4215698.746521 5.9051514 3.8111572 8.0178223 2.5985718 1.7935791 6.2354736 1.418335 8.1538086 1.0427856l.3018188.2086792v9.3890991c-2.6577759.0524292-4.7952881 2.19104-4.8452759 4.819458-.8699949-.7700196-2.0300291-1.2399903-3.2800291-1.2399903-2.7299805 0-4.960022 2.2299805-4.960022 4.9699707 0 .6799927.1400146 1.3300171.3900146 1.9199829h46.1400146c.25-.5899658.3900146-1.2399902.3900146-1.9199829.0000002-2.7399902-2.2200316-4.9699707-4.9600218-4.9699707zm-37.0999756 4.6300049c-.5499878 0-1.0499878-.5-1.0499878-1.0500488 0-.5499878.5-1.0499878 1.0499878-1.0499878s1.0499878.5 1.0499878 1.0499878c0 .5500488-.5 1.0500488-1.0499878 1.0500488zm5.75.0999756c-.5499878 0-1.0499878-.5-1.0499878-1.0499878s.5-1.0499878 1.0499878-1.0499878 1.0499878.5 1.0499878 1.0499878-.5 1.0499878-1.0499878 1.0499878zm1.6399536-3.0599975c-.5499878 0-1.0499878-.4899902-1.0499878-1.0499878 0-.5499878.5-1.0499878 1.0499878-1.0499878.5500488 0 1.0500488.5 1.0500488 1.0499878.0000001.5599975-.4999999 1.0499878-1.0500488 1.0499878zm3.3700562 1.8499755c-.5500488 0-1.0500488-.5-1.0500488-1.0499878s.5-1.0499878 1.0500488-1.0499878c.5599976 0 1.0499878.5 1.0499878 1.0499878s-.4899903 1.0499878-1.0499878 1.0499878zm4.0599975-1.4799804c-.5500488 0-1.0500488-.4899902-1.0500488-1.0499878 0-.5499878.5-1.0499878 1.0500488-1.0499878.5599976 0 1.0499878.5 1.0499878 1.0499878 0 .5599975-.4899902 1.0499878-1.0499878 1.0499878zm1.2199707-4.4400025c0-.5499878.5-1.0499878 1.0499878-1.0499878s1.0499878.5 1.0499878 1.0499878c0 .5599976-.5 1.0499878-1.0499878 1.0499878s-1.0499878-.4899902-1.0499878-1.0499878zm2.5599976 6.5599976c-.5499878 0-1.0499878-.5-1.0499878-1.0499878 0-.5599976.5-1.0499878 1.0499878-1.0499878s1.0499878.4899902 1.0499878 1.0499878c0 .5499878-.5 1.0499878-1.0499878 1.0499878zm1.0200195-8.710022c0-.5499878.5-1.0499878 1.0499878-1.0499878.5599976 0 1.0499878.5 1.0499878 1.0499878 0 .5600586-.4899902 1.0500488-1.0499878 1.0500488-.5499878 0-1.0499878-.4899902-1.0499878-1.0500488zm1.6900025 5.75c-.5499878 0-1.0499878-.5-1.0499878-1.0499878s.5-1.0499878 1.0499878-1.0499878 1.0499878.5 1.0499878 1.0499878-.5 1.0499878-1.0499878 1.0499878zm4.3200073 3.0100098c-.5500488 0-1.0500488-.5-1.0500488-1.0499878 0-.5599976.5-1.0499878 1.0500488-1.0499878.5599976 0 1.0499878.4899902 1.0499878 1.0499878 0 .5499878-.4899902 1.0499878-1.0499878 1.0499878zm3.8499756-2.5899658c-.5499878 0-1.0499878-.4899902-1.0499878-1.0499878 0-.5500488.5-1.0500488 1.0499878-1.0500488.5599976 0 1.0499878.5 1.0499878 1.0500488 0 .5599975-.4899903 1.0499878-1.0499878 1.0499878zm2.2699585 3.0599975c-.5499878 0-1.0499268-.5-1.0499268-1.0499878 0-.5500488.499939-1.0500488 1.0499268-1.0500488.5500488 0 1.0500488.5 1.0500488 1.0500488 0 .5499878-.5 1.0499878-1.0500488 1.0499878zm5.4300537.1499634c-.5500488 0-1.0500488-.5-1.0500488-1.0499878s.5-1.0499878 1.0500488-1.0499878c.5599976 0 1.0499878.5 1.0499878 1.0499878s-.4899903 1.0499878-1.0499878 1.0499878z"/><path d="m34.9299927 37.4020844c.6000366-.1599731 1.2200317-.25 1.8599854-.25 2.710022 0 5.0800171 1.5900269 6.2200317 3.8699951.6399536-.1900025 1.3099975-.2899781 1.9899902-.2899781.2299805 0 .460022.0100098.6900024.039978l1.2299805-6.5200195c.1300049-.6999512-.0100098-1.4099731-.4099731-2-.4000244-.5799561-1.0100098-.9799805-1.710022-1.1099854l-3.6699829-.6900024 3.9400024-20.4299927 1.5700073.289978c.5053635.0843134 1.0090981-.007432 1.4299927-.3099976.4299927-.2899788.7199707-.7299813.8099976-1.2399911l.3999634-2.1799927v-.0100097c.190815-1.0809903-.5334053-2.0605431-1.5499878-2.2399902l-5.0800171-.9199827c-1.0499878-.2000122-2.0499878.5-2.2399902 1.5399778l-.3999634 2.1900024c-.0900269.5100098.0199585 1.0200195.3099976 1.4400024.289978.4299927.7299805.710022 1.2399902.7999878l1.5499878.2800293-3.9400025 20.4199839-3.7199707-.7000122c-.7000122-.1300049-1.4100342.0100098-2 .4100342-.5900269.3999634-.9799805 1.0100098-1.1099854 1.7099609l-.3600464 1.9700317c.210022.1699829.4100342.3399658.6100464.5200195 1.0499878.9499513 1.8399659 2.1199952 2.3399659 3.4099733zm7.0599975-29.9700327.3699951-2.039978 4.9400024.9000244-.3699951 2.039978z"/></g></svg>