<svg id="Layer_1" enable-background="new 0 0 512.203 512.203" height="512" viewBox="0 0 512.203 512.203" width="512" xmlns="http://www.w3.org/2000/svg"><g><path d="m241.102 385.867v96.336h-123.715v30h277.429v-30h-123.714v-96.336z"/><path d="m186.163 271.58 21.213-21.213 33.726 33.726v-65.785l-54.938-54.938 21.213-21.213 33.726 33.725v-45.299h30v99.405l33.726-33.725 21.213 21.213-54.938 54.938v113.429h119.436c47.303 0 85.787-38.484 85.787-85.787 0-19.457-6.698-38.514-18.861-53.658-8.379-10.434-19.124-18.758-31.172-24.303 3.261-10.71 4.908-21.834 4.908-33.232 0-27.334-9.801-53.791-27.597-74.496-14.979-17.429-34.818-29.902-56.752-35.87-2.823-19.661-11.922-37.797-26.274-51.995-17.279-17.091-40.176-26.502-64.477-26.502s-47.199 9.411-64.474 26.5c-14.352 14.198-23.451 32.334-26.274 51.995-21.934 5.968-41.772 18.441-56.752 35.87-17.796 20.705-27.597 47.162-27.597 74.496 0 11.398 1.646 22.522 4.908 33.232-12.048 5.545-22.793 13.869-31.172 24.303-12.163 15.145-18.861 34.201-18.861 53.658 0 47.303 38.484 85.787 85.787 85.787h119.436v-59.323z"/></g></svg>