<svg id="Layer_1" enable-background="new 0 0 511.705 511.705" height="512" viewBox="0 0 511.705 511.705" width="512" xmlns="http://www.w3.org/2000/svg"><path d="m503.449 140.035c-6.973-12.299-21.502-20.999-40.909-24.497-12.013-2.164-25.513-2.343-40.357-.585 9.73-6.881 18.023-14.114 24.784-21.661 16.013-17.873 32.83-55.101 4.572-71.294-11.209-6.424-26.1-5.018-39.828 3.763-7.906 5.057-.185 17.922 8.082 12.637 8.937-5.715 18.016-6.98 24.288-3.386 5.089 2.917 7.844 8.796 7.558 16.131-1.026 26.295-34.302 52.128-66.963 68.596-2.184-2.572-4.79-4.684-7.704-6.257 5.319-20.471 12.278-37.675 20.729-51.184 4.977-7.957-7.512-16.274-12.717-7.955-4.042 6.462-7.757 13.659-11.141 21.533-2.469-26.88-11.932-64.975-41.391-74.318-14.102-4.472-28.063.874-35.565 13.622-15.656 26.605 2.708 61.244 18.889 82.916-24.545-11.312-62.225-22.082-85.012-1.253-10.916 9.978-13.258 24.738-5.969 37.604 15.218 26.86 54.447 28.272 81.237 25.104-23.309 16.479-62.813 56.839-36.74 86.858-29.034 45.899-49.944 96.735-61.668 149.761l-51.244-89.6c13.373 9.073 31.445 16.469 47.51 10.157 11.965-4.701 18.463-15.954 16.553-28.667-3.633-24.178-30.752-37.242-51.623-43.26 20.873-6.018 48.003-19.088 51.625-43.273 1.904-12.712-4.599-23.961-16.567-28.658-22.738-8.921-47.654 8.055-63.262 23.083 2.548-10.285 3.751-19.919 3.556-28.821-.366-16.675-5.77-30-15.215-37.521-10.057-8.007-23.05-8.002-33.103.013-9.449 7.534-14.847 20.878-15.201 37.574-.188 8.884 1.015 18.496 3.557 28.755-15.603-15.024-40.522-32.003-63.257-23.084-11.949 4.687-18.457 15.915-16.58 28.604 1.757 11.88 10.502 23.185 24.624 31.832 7.667 4.694 16.702 8.526 27.007 11.497-20.869 6.017-47.99 19.082-51.621 43.26-1.909 12.705 4.583 23.955 16.538 28.659 22.75 8.954 47.703-8.06 63.308-23.091-1.541 6.221-2.602 12.216-3.15 17.95-.934 9.756 14.001 11.165 14.932 1.429 1.272-13.293 5.671-28.35 13.069-44.818 2.222.319 4.443.319 6.665 0 22.004 49.031 12.834 76.035 1.388 81.648-6.37 3.124-13.202-.277-17.402-8.667-4.203-8.393-17.806-2.059-13.413 6.716 6.885 13.752 22.587 22.694 37.419 15.419 17.351-8.509 21.333-30.772 20.272-48.152l59.195 103.502c-4.806 27.962-7.239 56.656-7.239 85.849 0 9.385 15 9.813 15 0 0-51.229 7.676-100.855 22.813-147.498 11.649-35.892 27.774-70.249 47.964-102.229 34.353 11.845 61.509-30.164 72.65-56.089 1.368 14.877 4.35 28.039 8.963 39.333 7.457 18.254 18.986 30.655 32.466 34.918 3.299 1.043 6.589 1.55 9.791 1.55 10.483 0 20.015-5.428 25.756-15.193 7.164-12.186 7.436-29.114.766-47.666-4.129-11.483-10.721-23.262-19.662-35.237 24.502 11.292 62.246 22.075 85.019 1.247 10.914-9.979 13.252-24.741 5.958-37.606zm-297.839 150.253c.87 5.789-1.756 10.336-7.205 12.477-10.685 4.197-36.545-.558-67.412-43.39 1.371-1.744 2.502-3.684 3.344-5.772 52.522 5.317 69.567 25.332 71.273 36.685zm-7.211-103.456c5.45 2.139 8.079 6.685 7.212 12.473-1.7 11.35-18.737 31.373-71.275 36.692-.841-2.088-1.972-4.028-3.344-5.772 30.861-42.821 56.717-47.586 67.407-43.393zm-93.193-45.481c4.578-3.65 9.83-3.652 14.408-.006 8.978 7.149 17.791 31.917-3.864 80.066-2.223-.32-4.447-.32-6.67 0-21.647-48.128-12.852-72.902-3.874-80.06zm-85.993 57.926c-.854-5.775 1.777-10.311 7.218-12.445 10.677-4.187 36.538.565 67.405 43.392-1.372 1.744-2.503 3.684-3.344 5.772-52.61-5.331-69.605-25.396-71.279-36.719zm7.202 103.484c-5.443-2.142-8.066-6.688-7.197-12.473 1.704-11.346 18.744-31.367 71.273-36.686.842 2.089 1.973 4.029 3.344 5.773-30.882 42.85-56.746 47.591-67.42 43.386zm77.369-57.961c0-4.758 3.872-8.629 8.63-8.629s8.63 3.871 8.63 8.629-3.872 8.63-8.63 8.63-8.63-3.872-8.63-8.63zm258.463-95.7c-6.469-1.025-11.002-7.265-9.977-13.733 1.023-6.469 7.264-11.002 13.732-9.977 6.469 1.024 11.001 7.264 9.978 13.733-1.035 6.537-7.19 11.014-13.733 9.977zm-52.432-126.313c3.936-6.687 10.703-9.281 18.103-6.931 13.76 4.364 35.295 29.279 31.341 94.819-3.266.596-6.406 1.803-9.283 3.579-46.843-46.101-47.476-79.035-40.161-91.467zm-71.969 104.265c-3.824-6.749-2.688-13.903 3.039-19.138 10.649-9.735 42.995-15.943 97.803 20.267-1.125 3.178-1.643 6.452-1.556 9.822-63.336 17.507-92.177 1.597-99.286-10.951zm54.46 114.455c-7.326 0-13.643-5.127-15.203-12.197-3.109-14.088 7.683-45.208 66.46-74.571 2.188 2.579 4.8 4.697 7.721 6.273-16.447 63.381-44.511 80.497-58.978 80.495zm126.133 10.189c-3.932 6.687-10.694 9.282-18.092 6.944-13.754-4.35-35.311-29.254-31.353-94.835 3.316-.611 6.445-1.851 9.261-3.586 46.851 46.101 47.495 79.041 40.184 91.477zm68.93-85.122c-10.646 9.737-42.99 15.953-97.807-20.265 1.125-3.178 1.644-6.452 1.556-9.822 63.324-17.506 92.168-1.601 99.283 10.947 3.826 6.748 2.692 13.904-3.032 19.14z"/></svg>