<?xml version="1.0" encoding="iso-8859-1"?>
<!-- Generator: Adobe Illustrator 19.0.0, SVG Export Plug-In . SVG Version: 6.00 Build 0)  -->
<svg version="1.1" id="Capa_1" xmlns="http://www.w3.org/2000/svg" xmlns:xlink="http://www.w3.org/1999/xlink" x="0px" y="0px"
	 viewBox="0 0 512 512" style="enable-background:new 0 0 512 512;" xml:space="preserve">
<g>
	<g>
		<path d="M509.273,141.615c-2.016-2.474-12.224-14.491-28.614-25.36c4.448-0.178,9.093,0.41,13.983,1.762
			c4.525,1.248,9.303-0.333,12.173-4.032c2.849-3.673,3.193-8.656,0.877-12.691c-2.769-4.829-28.408-47.292-75.252-50.961
			c-0.059-0.004-0.117-0.008-0.176-0.012c-2.736-0.15-5.493-0.187-8.242-0.114c-1.23-2.435-2.569-4.842-4.017-7.221
			c-0.031-0.051-0.063-0.101-0.094-0.15c-25.38-39.547-74.917-42.062-80.48-42.22c-4.651-0.122-8.881,2.525-10.772,6.771
			c-1.903,4.278-1.039,9.238,2.202,12.634c3.502,3.67,6.215,7.485,8.162,11.488c-17.325-9.303-32.739-12.616-35.871-13.223
			c-4.829-0.939-9.688,1.106-12.383,5.207c-2.718,4.133-2.668,9.451,0.127,13.546c9.345,13.699,11.507,27.262,6.779,42.759
			c-3.094,10.557-12.857,26.688-20.901,37.166c-0.221,0.288-0.419,0.59-0.594,0.902c-3.311,5.039-5.84,10.494-7.521,16.222
			c-4.96,16.912-2.202,34.287,6.204,48.337c-7.889,1.935-14.635,5.01-19.618,9.018c-4.149,3.337-5.408,9.2-2.993,13.94
			c7.162,14.062,20.153,23.782,35.641,26.67c5.549,1.034,11.115,1.138,16.512,0.361c-15.548,21.157-33.357,43.683-53.49,66.711
			l-2.521-30.624c-0.34-4.128-3.96-7.201-8.091-6.859c-4.128,0.34-7.2,3.962-6.859,8.091l3.691,44.826
			c-16.55,18.145-34.528,36.478-53.961,54.585c-0.921,0.549-1.692,1.278-2.285,2.121c-9.652,8.932-19.658,17.804-30.023,26.568
			c0.855-10.247-0.216-21.823-3.246-33.785c-5.313-20.97-15.356-38.028-27.556-46.798c-4.737-3.405-11.295-3.021-15.592,0.915
			c0,0,0,0-0.001,0.001c-17.257,15.806-24.128,38.785-18.379,61.469c4.869,19.217,17.802,34.306,35.443,41.925
			c-35.408,27.372-74.539,53.15-117.515,75.681c-3.668,1.924-5.083,6.457-3.16,10.126c1.341,2.558,3.949,4.02,6.649,4.02
			c1.173,0,2.365-0.276,3.476-0.859c63.314-33.194,123.761-76.322,180.021-128.409c5.579-1.921,29.107-9.251,62.165-8.885
			c0.14,0.388,0.297,0.773,0.473,1.153c10.882,23.563,31.486,40.764,56.53,47.193c4.007,1.025,8.101-1.388,9.13-5.399
			c1.03-4.012-1.387-8.101-5.399-9.131c-20.511-5.266-37.419-19.303-46.45-38.542c28.911-21.014,97.999-16.813,124.159,7.546
			c-10.322,16.444-27.08,28.043-46.047,31.851c-4.061,0.815-6.693,4.769-5.876,8.831c0.715,3.563,3.845,6.024,7.346,6.024
			c0.489,0,0.986-0.048,1.484-0.147c23.171-4.652,43.615-18.886,56.091-39.052c3.58-5.784,2.594-13.389-2.343-18.08
			c-31.309-29.758-109.424-34.503-144.107-8.758c-0.643,0.477-1.235,1.001-1.777,1.564c-17.124-0.419-31.985,1.107-43.694,3.106
			c38.37-37.841,73.982-79.218,106.133-123.289c1.807,6.461,4.929,12.582,9.293,18.012c9.637,11.997,23.891,18.813,39.249,18.813
			c0.368,0,0.737-0.004,1.106-0.012c5.32-0.113,9.892-3.995,10.869-9.23c1.172-6.274,0.697-13.658-1.318-21.508
			c0.883,0.038,1.77,0.057,2.658,0.057c2.835,0,5.697-0.196,8.567-0.594c19.186-2.659,35.54-13.925,44.868-30.907
			c1.994-3.63,0.667-8.19-2.963-10.185c-3.633-1.996-8.192-0.668-10.186,2.963c-7.023,12.786-19.334,21.267-33.779,23.27
			c-6.025,0.837-12,0.493-17.662-0.943c-0.228-0.087-0.461-0.163-0.699-0.228c-7.419-2.015-14.227-5.888-19.761-11.231
			c-0.008-0.008-0.016-0.016-0.024-0.023c-0.06-0.058-0.12-0.116-0.179-0.175c-0.041-0.041-0.083-0.081-0.124-0.122
			c-0.014-0.013-0.027-0.027-0.04-0.04c-0.152-0.15-0.302-0.301-0.452-0.453c-0.264-0.268-0.524-0.539-0.779-0.813
			c-0.009-0.01-0.018-0.02-0.027-0.029c-0.114-0.122-0.227-0.245-0.338-0.368c-0.04-0.044-0.079-0.088-0.119-0.132
			c-0.079-0.088-0.158-0.176-0.236-0.264c-0.064-0.073-0.128-0.146-0.191-0.219c-0.051-0.059-0.103-0.118-0.154-0.177
			c-0.084-0.098-0.168-0.197-0.252-0.296c-0.028-0.033-0.057-0.067-0.085-0.1c-0.1-0.12-0.2-0.24-0.299-0.36
			c-0.01-0.013-0.021-0.025-0.031-0.037c-2.582-3.157-4.668-6.681-6.227-10.525c-0.005-0.012-0.01-0.025-0.015-0.037
			c-0.046-0.114-0.091-0.228-0.136-0.342c-0.032-0.083-0.065-0.165-0.097-0.248c-0.014-0.035-0.027-0.071-0.041-0.106
			c-5.907-15.442-2.45-33.62,5.741-46.355c0.036-0.055,0.071-0.11,0.107-0.166c0.023-0.036,0.047-0.071,0.07-0.107
			c0.131-0.201,0.264-0.401,0.398-0.6c12.138-16.36,26.978-28.145,44.109-35.024c0.003-0.001,0.007-0.003,0.01-0.004
			c7.965-3.197,16.442-5.344,25.211-6.387c0.027-0.003,0.054-0.006,0.08-0.01c0.273-0.032,0.547-0.064,0.82-0.094
			c0.181-0.015,0.362-0.03,0.543-0.044c0.048-0.004,0.096-0.007,0.144-0.011c0.173-0.013,0.347-0.026,0.521-0.037
			c0.036-0.002,0.072-0.005,0.108-0.007c0.171-0.011,0.343-0.022,0.515-0.032l0.052-0.003c1.855-0.109,3.734-0.149,5.62-0.12
			c0.041,0.001,0.083,0.001,0.124,0.002c0.116,0.002,0.232,0.005,0.348,0.007c30.093,0.662,55.655,19.061,69.325,33.39
			c-21.924-0.393-39.645,8.956-54.005,28.417c-2.459,3.333-1.751,8.029,1.582,10.489c3.333,2.457,8.029,1.752,10.489-1.582
			c12.608-17.087,27.674-24.064,47.41-21.962c4.936,0.527,9.642-1.943,11.999-6.292
			C512.875,150.672,512.379,145.423,509.273,141.615z M133.042,409.804c-16.189-4.812-28.224-17.324-32.412-33.853
			c-4.188-16.527,0.436-33.26,12.38-45.2C131.199,345.857,141.843,387.856,133.042,409.804z M290.642,217.308
			c-9.813-1.83-18.198-7.57-23.44-15.934c4.57-2.722,11.084-4.742,18.361-5.683c0.499,0.466,1.006,0.922,1.521,1.37
			c0.026,0.023,0.052,0.046,0.078,0.068c0.031,0.027,0.063,0.054,0.094,0.082c6.062,5.252,13.257,9.377,21.349,11.943l0.016,0.005
			c0.128,0.04,0.256,0.08,0.384,0.12c0.016,0.005,0.032,0.01,0.048,0.015c0.134,0.041,0.268,0.082,0.403,0.123
			c0.003,0.001,0.005,0.002,0.008,0.002c0.141,0.042,0.282,0.084,0.424,0.126c0.812,0.238,1.627,0.457,2.445,0.657
			c0.018,0.004,0.036,0.009,0.054,0.013c0.142,0.035,0.285,0.069,0.427,0.103c0.047,0.011,0.094,0.022,0.141,0.033
			c0.114,0.027,0.229,0.053,0.343,0.079c0.068,0.015,0.136,0.03,0.204,0.045c0.091,0.02,0.183,0.041,0.274,0.061
			c0.092,0.02,0.184,0.039,0.275,0.059c0.069,0.015,0.137,0.029,0.206,0.044c0.105,0.022,0.21,0.043,0.315,0.064
			c0.056,0.011,0.112,0.023,0.169,0.034c0.113,0.022,0.226,0.044,0.338,0.066c0.049,0.009,0.098,0.019,0.147,0.028
			c0.122,0.023,0.244,0.046,0.367,0.068c0.038,0.007,0.076,0.014,0.115,0.021c0.133,0.024,0.266,0.047,0.399,0.07
			c0.028,0.005,0.056,0.01,0.084,0.015c0.132,0.023,0.264,0.045,0.397,0.066c0.032,0.005,0.065,0.011,0.097,0.016
			c0.137,0.022,0.274,0.043,0.411,0.065c0.024,0.004,0.048,0.007,0.072,0.011c0.135,0.021,0.27,0.041,0.405,0.06
			c0.031,0.005,0.062,0.009,0.094,0.014c0.039,0.006,0.079,0.012,0.119,0.017C309.976,216.905,300.278,219.106,290.642,217.308z
			 M336.389,224.88c0.043,0.046,0.085,0.092,0.128,0.138c0.065,0.069,0.13,0.138,0.195,0.207c0.088,0.093,0.176,0.186,0.265,0.279
			c0.048,0.051,0.097,0.101,0.146,0.152c0.142,0.148,0.285,0.295,0.429,0.441c0.102,0.103,0.204,0.206,0.306,0.308
			c0.009,0.009,0.019,0.019,0.028,0.028c6.736,6.738,14.728,11.677,23.402,14.621c2.592,6.832,3.881,13.499,3.645,18.794
			c-9.848-0.664-18.872-5.341-25.125-13.124c-6.134-7.637-8.781-17.216-7.497-26.764
			C333.569,221.665,334.929,223.307,336.389,224.88z M336.154,141.872c-0.047,0.06-0.095,0.12-0.142,0.18
			c-0.137,0.173-0.273,0.347-0.409,0.521c-0.115,0.146-0.229,0.293-0.343,0.441c-0.07,0.09-0.139,0.18-0.209,0.27
			c-0.152,0.198-0.305,0.396-0.457,0.595c-0.036,0.048-0.073,0.096-0.109,0.143c-0.168,0.221-0.336,0.443-0.503,0.666
			c-0.02,0.027-0.04,0.054-0.06,0.081c-0.183,0.244-0.366,0.489-0.549,0.736c-0.061,0.083-0.121,0.167-0.178,0.252
			c-0.113,0.167-0.225,0.334-0.336,0.501c-0.021,0.031-0.041,0.062-0.062,0.094c-8.702,13.127-12.645,28.874-11.374,43.85
			c0.179,2.195,0.466,4.35,0.86,6.461c-0.102-0.008-0.205-0.016-0.307-0.025c-0.003,0-0.006-0.001-0.01-0.001
			c-0.174-0.015-0.347-0.032-0.521-0.049c-0.003,0-0.006,0-0.009-0.001c-2.472-0.251-4.918-0.729-7.326-1.435
			c-0.109-0.032-0.218-0.065-0.327-0.097c-0.017-0.005-0.034-0.01-0.05-0.015c-6.32-1.912-12.148-5.173-17.067-9.528
			c-0.097-0.086-0.195-0.173-0.291-0.26c-0.016-0.015-0.032-0.029-0.049-0.044c-12.628-11.43-18.379-29.49-13.273-46.896
			c1.305-4.448,3.295-8.685,5.917-12.591c0.02-0.03,0.04-0.061,0.06-0.091c8.564-11.253,19.311-28.893,23.017-41.533
			c5.361-17.576,3.724-33.833-5.026-49.491c17.217,4.753,41.922,16.462,57.474,37.948c4.004,5.597,7.224,11.641,9.675,18.162
			c2.001,5.573,3.496,11.254,4.468,16.976C362.408,115.244,348.152,126.713,336.154,141.872z M419.295,97.545
			c-1.413,0.046-2.838,0.125-4.276,0.238c-0.207,0.016-0.415,0.033-0.622,0.051c-0.03,0.002-0.059,0.005-0.088,0.008
			c-0.03,0.003-0.059,0.005-0.089,0.008c-0.219,0.024-0.439,0.049-0.66,0.074l-0.043,0.005c-0.212,0.024-0.424,0.05-0.638,0.075
			c-0.029,0.003-0.057,0.007-0.086,0.01c-0.166,0.02-0.332,0.041-0.498,0.062c-0.115,0.014-0.229,0.029-0.344,0.044
			c-0.064,0.008-0.128,0.016-0.192,0.025c-6.437,0.84-12.739,2.202-18.839,4.07c-1.341-7.015-3.293-13.627-5.868-19.859
			c-0.131-0.334-0.264-0.668-0.399-1.002c-0.022-0.055-0.045-0.109-0.069-0.164c-6.976-16.167-17.608-28.35-28.988-37.471
			c-0.767-9.884-4.223-19.062-10.312-27.41c18.24,2.442,45.163,11.578,59.955,34.555c1.935,3.185,3.639,6.431,5.113,9.736
			c0.047,0.126,0.098,0.251,0.152,0.375C417.572,72.508,419.848,84.781,419.295,97.545z M434.302,98.264
			c0.515-11.402-0.883-22.437-4.178-33.025c0.411,0.016,0.822,0.034,1.232,0.057c27.237,2.17,48.017,21.575,58.795,36.494
			c-10.235-1.419-19.957-0.123-29.031,3.873C452.999,102.203,444.018,99.515,434.302,98.264z"/>
	</g>
</g>
<g>
</g>
<g>
</g>
<g>
</g>
<g>
</g>
<g>
</g>
<g>
</g>
<g>
</g>
<g>
</g>
<g>
</g>
<g>
</g>
<g>
</g>
<g>
</g>
<g>
</g>
<g>
</g>
<g>
</g>
</svg>
