<svg height="512" viewBox="0 0 60 60" width="512" xmlns="http://www.w3.org/2000/svg"><g id="Page-1" fill="none" fill-rule="evenodd"><g id="002---Flower" fill="rgb(0,0,0)" fill-rule="nonzero" transform="translate(0 -1)"><path id="Shape" d="m15 24v-2.14c.3506896-.0990243.6868866-.243589 1-.43l1.27 1.28c.1877666.1893127.4433625.2957983.71.2957983s.5222334-.1064856.71-.2957983c.1893127-.1877666.2957983-.4433625.2957983-.71s-.1064856-.5222334-.2957983-.71l-1.22-1.29c.186411-.3131134.3309757-.6493104.43-1h2.1c.5522847 0 1-.4477153 1-1s-.4477153-1-1-1h-2.1c-.0990243-.3506896-.243589-.6868866-.43-1l1.28-1.27c.3921222-.3921222.3921222-1.0278778 0-1.42s-1.0278778-.3921222-1.42 0l-1.27 1.28c-.3131134-.186411-.6493104-.3309757-1-.43v-2.16c0-.5522847-.4477153-1-1-1s-1 .4477153-1 1v2.14c-.3506896.0990243-.6868866.243589-1 .43l-1.27-1.28c-.2536586-.2536586-.623374-.3527235-.96987804-.259878-.34650406.0928454-.61715453.3634959-.71000001.71-.09284548.346504.00621947.7162194.25987805.969878l1.24 1.29c-.186411.3131134-.3309757.6493104-.43 1h-2.18c-.55228475 0-1 .4477153-1 1s.44771525 1 1 1h2.14c.0990243.3506896.243589.6868866.43 1l-1.24 1.29c-.18931265.1877666-.29579832.4433625-.29579832.71s.10648567.5222334.29579832.71c.1877666.1893127.44336246.2957983.71.2957983.2666375 0 .5222334-.1064856.71-.2957983l1.25-1.28c.3131134.186411.6493104.3309757 1 .43v2.14c0 .5522847.4477153 1 1 1s1-.4477153 1-1zm-2.41-4.58c-.7754472-.7800749-.7754472-2.0399251 0-2.82.7800749-.7754472 2.0399251-.7754472 2.82 0 .7754472.7800749.7754472 2.0399251 0 2.82-.7800749.7754472-2.0399251.7754472-2.82 0z"/><path id="Shape" d="m47.22 38.31c1.6561293-1.1089451 2.905864-2.7272813 3.56-4.61 1.21-4.13-1.87-8.52-2-8.71-.2676526-.3783048-.7601525-.5231577-1.19-.35-1.9114491.7986714-3.6198827 2.0150761-5 3.56-1.6744507-1.1438681-3.5850831-1.8958165-5.59-2.2-.4561696-.0587557-.8935913.2012214-1.06.63-.08.21-2 5.23.2 8.93.5271989.8734091 1.2283904 1.6290621 2.06 2.22-2.5329293.0752203-5.0447523.4854511-7.47 1.22-5.79 1.65-6.78-.36-6.78-.36-.114325-.3394023-.4010346-.5920313-.7521281-.6627241-.3510935-.0706929-.7132315.0512905-.95.32-.2367686.2687095-.3121969.6433218-.1978719.9827241.1.3.93 2.37 4.72 2.37 1.5267661-.0315982 3.0415414-.2773284 4.5-.73 1.33-.38 2.46-.64 3.46-.83-.91.46-1.74.94-2.55 1.4-2.28 1.37-4.26 2.51-7.18 2.51-2.6745455.0966437-5.274672-.8914765-7.21-2.74-1.8647364-1.9487061-2.8697935-4.5640159-2.79-7.26 0-.58 0-1.32 0-2.17 1.5681777-.5509338 2.7984382-1.7885611 3.34-3.36 2.15.92 4.24.73 5.55-.58s1.5-3.4.58-5.56c1.2185819-.4350297 2.2638849-1.2523304 2.98-2.33.496741.1048105 1.0023893.1617378 1.51.17h.49c4.86-.34 8.26-5.79 8.4-6 .2288135-.3663492.1965498-.8382056-.08-1.17-1.6295676-1.890105-3.6864902-3.36423288-6-4.3.4186705-2.32630965.3196569-4.71629248-.29-7-.1258326-.40156195-.4895964-.68138032-.91-.7-.27 0-6.7-.27-9.73 3.56-.5928739.7750207-1.0370354 1.65317189-1.31 2.59-.3892045.09292885-.7704053.21665193-1.14.37-.88-2.15-2.52-3.52-4.39-3.52s-3.43 1.37-4.3 3.52c-2.16-.92-4.25-.73-5.56.58s-1.5 3.4-.58 5.56c-2.15.87-3.56 2.52-3.56 4.34s1.37 3.47 3.52 4.34c-.92 2.16-.73 4.25.58 5.56s3.4 1.5 5.56.58c.5384889 1.5790499 1.7741833 2.8221216 3.35 3.37v2.14c-.0194633 1.631688.2654021 3.2527077.84 4.78-1.7132671-.730047-3.6122254-.904905-5.43-.5-4.16 1.09-6.32 6-6.41 6.22-.17943922.4230736-.04742979.9139836.32 1.19 1.68153667 1.221247 3.62162785 2.039028 5.67 2.39-.11240396 2.0492278.22905751 4.0979966 1 6 .15955313.3655887.52111355.601389.92.6h.17c.23 0 5.52-1 7.54-4.81.8387962-1.7469617 1.0913144-3.7180064.72-5.62 2.0096886 1.1940841 4.3127403 1.8036136 6.65 1.76.8638604.0022282 1.7254638-.0882904 2.57-.27-.5684429 2.2997784-.2916263 4.727247.78 6.84 2.19 3.71 7.52 4.43 7.74 4.43h.13c.4122928-.0012179.7815757-.2553481.93-.64.08-.21 2-5.23-.2-8.93-1.1249943-1.7105792-2.7900795-2.9954758-4.73-3.65l1-.56c2.78-1.56 5.6-3.22 10.78-3.22 9.68 0 12.82 7.91 13.7 14.91-1.7028693-2.6415015-4.4542918-4.4284704-7.56-4.91-.3572656-.0500172-.7140765.0943639-.9360254.3787564-.221949.2843925-.2753167.6655904-.1400001 1.0000001.1353167.3344096.4387599.5712263.7960255.6212435 6.23.89 8.15 8.18 8.17 8.25.1141623.4421515.5133488.7508009.97.75h.12c.5049651-.0610234.8836739-.4913743.88-1 0-12.43-4.61-20.13-12.78-21.69zm-16.89-28c2.066943.6183785 3.9289444 1.7825612 5.39 3.37-.95 1.32-3.42 4.32-6.41 4.49-.4382927.0246795-.8779674-.0021709-1.31-.08v-.09c0-1.82-1.37-3.47-3.52-4.34.2524173-.5847056.4272348-1.1999287.52-1.83 1.0566026-.9097354 2.3640231-1.4780276 3.75-1.63.5307735-.0392746 1.0644019.0080089 1.58.14zm-7.92-4.51c1.87-2.36 5.7-2.74 7.32-2.8.3681324 1.7210865.3986977 3.49726632.09 5.23-.4059302-.03461225-.8140698-.03461225-1.22 0-1.349099.12374498-2.6471388.57702872-3.78 1.32-.1846724-.53260558-.4852298-1.0175959-.88-1.42-.6022689-.6124966-1.3894781-1.00961556-2.24-1.13.187724-.42700654.4261009-.82989706.71-1.2zm-11.15 21c-.0777447-.3073826-.2966532-.559684-.59-.68-.1202223-.051241-.2493227-.07842-.38-.08-.1843707-.0026555-.36536958.0495558-.52.15-1.68 1-3.37 1.13-4.21.29s-.73-2.54.29-4.22c.16184748-.2734309.18411906-.6075046.06-.9-.12031603-.2933468-.37261741-.5122553-.68-.59-1.88-.44-3.23-1.59-3.23-2.77s1.31-2.33 3.19-2.78c.30738259-.0777447.55968397-.2966532.68-.59.12411906-.2924954.10184748-.6265691-.06-.9-1-1.68-1.14-3.37-.29-4.22s2.53-.72 4.21.29c.2718018.16511709.6059365.19110535.9.07.2933468-.12031603.5122553-.37261741.59-.68.49-1.88 1.64-3.19 2.78-3.19s2.33 1.31 2.78 3.19c.0777447.30738259.2966532.55968397.59.68.2940635.12110535.6281982.09511709.9-.07 1.68-1 3.37-1.13 4.22-.29s.72 2.54-.29 4.22c-.1651171.2718018-.1911053.6059365-.07.9.120316.2933468.3726174.5122553.68.59 1.92.45 3.19 1.6 3.19 2.78s-1.31 2.33-3.19 2.78c-.3073826.0777447-.559684.2966532-.68.59-.1211053.2940635-.0951171.6281982.07.9 1 1.68 1.13 3.37.29 4.22s-2.54.72-4.22-.29c-.2718018-.1651171-.6059365-.1911053-.9-.07-.2933468.120316-.5122553.3726174-.59.68-.41 1.88-1.56 3.19-2.78 3.19s-2.29-1.31-2.74-3.19zm-7 17.73c.74-1.24 2.32-3.7 4.74-4.33s5 .71 6.24 1.45c-.69 1.26-2.32 3.72-4.71 4.35s-5.05-.71-6.28-1.46zm11.6 4.36c-1.16 2.17-3.94 3.19-5.32 3.58-.4681487-1.3995116-.65174744-2.8785013-.54-4.35.3378242-.03685.6722018-.1003817 1-.19 2.1739096-.7155674 4.0235594-2.1789876 5.22-4.13.4620249 1.6924361.3314701 3.4919743-.37 5.1zm19.38-.41c1.25 2.11.69 5 .31 6.4-1.4-.32-4.21-1.22-5.47-3.34s-.67-5.08-.3-6.4c1.35.33 4.22 1.23 5.45 3.35zm2.62-14c-1.26-2.12-.69-5-.31-6.4 1.4419477.3107403 2.803894.9168064 4 1.78-.1542662.3221812-.281374.6566755-.38 1-.5200248 2.2275228-.229306 4.5674546.82 6.6-1.6795101-.4752176-3.1424858-1.5176762-4.14-2.95zm5.25-3.07c.7-2.36 3.21-3.93 4.48-4.59.71 1.25 2 3.92 1.28 6.28s-3.21 3.93-4.48 4.59c-.72-1.22-1.98-3.89-1.29-6.25z"/></g></g></svg>