<svg id="Layer_1" enable-background="new 0 0 60 60" height="512" viewBox="0 0 60 60" width="512" xmlns="http://www.w3.org/2000/svg"><path d="m25.0783081 6.6236572c-2.0800781-1.7451172-5.2167969-1.7451172-7.296875 0-.8076172.6772461-2.7246094 2.7719727-2.0375977 6.9199219-3.2490234-2.6699219-6.0214844-2.0571289-7.0112305-1.6958008-2.5512695.9287109-4.1201172 3.6455078-3.6484375 6.3198242.1831055 1.0375977 1.0385742 3.7451172 4.9741211 5.2241211-3.9355469 1.4790039-4.7910156 4.1865234-4.9741211 5.2241211-.4716797 2.6738281 1.0966797 5.390625 3.6484375 6.3193359.9912109.3603516 3.7631836.9741211 7.0112305-1.6958008-.6865234 4.1479492 1.2299805 6.2426758 2.0375977 6.9199219 1.0400391.8725586 2.3442383 1.309082 3.6484375 1.309082s2.6083984-.4365234 3.6484375-1.309082c.6347656-.5322876 1.9497681-1.9458008 2.1521606-4.538147 1.5131836 2.4000854 3.5741577 5.2507935 6.2145996 8.0227051-1.0877686-.1395874-2.1936035-.1022949-3.2876587.1292114-2.8222656.597168-5.2104492 2.3779297-6.7250977 5.0151367-.2539063.4418945-.1347656 1.003418.2763672 1.3046875 1.8642578 1.3662109 3.9887695 2.0756836 6.140625 2.0756836.6791992 0 1.3613281-.0708008 2.0385742-.2138672 2.4910889-.5271606 4.642395-1.9796143 6.1553345-4.126709.5106812.3986206 1.0394287.7850952 1.5794067 1.1633911.0161743.0128784.0335083.0228271.0504761.034668 3.9403076 2.7511597 8.6537476 4.9098511 14.1937866 5.6503296.0449219.0058594.0893555.0087891.1337891.0087891.4931641 0 .9223633-.3652344.9897461-.8676758.0732422-.5473633-.3115234-1.050293-.8588867-1.1235352-4.3474731-.5810547-8.1602173-2.0985107-11.4672241-4.0964966 1.9998779-.7626953 3.6741333-2.0869751 4.8314819-3.8659058 1.5732422-2.4174805 2.0024414-5.3657227 1.2089844-8.3012695-.1328125-.4921875-.6181641-.8007813-1.1176758-.7275391-3.0058594.4633789-5.5273438 2.0498047-7.1005859 4.4672852-1.125 1.7287598-1.6537476 3.7303467-1.5799561 5.8033447-4.628418-3.7003174-7.9703979-8.1708374-10.1107178-11.6055298 2.4968872 1.3258057 4.5169067.8631592 5.3317871.5673218 2.5512695-.9287109 4.1196289-3.6455078 3.6484375-6.3193359-.1831055-1.0375977-1.0385742-3.7451172-4.9746094-5.2241211 3.9355469-1.4790039 4.7915039-4.1865234 4.9746094-5.2241211.4711914-2.6743164-1.097168-5.3911133-3.6489258-6.3198242-.9882813-.359375-3.7626953-.9731445-7.0112305 1.6958008.6865236-4.1479491-1.2299803-6.2426757-2.0375975-6.9199218zm17.0844727 34.6372071c1.097168-1.6855469 2.7832031-2.8681641 4.8105469-3.3930664.3417969 2.0664063-.0566406 4.0869141-1.1538086 5.7729492-1.0966797 1.6855469-2.7832031 2.8686523-4.8105469 3.3930664-.3417969-2.0664063.0566406-4.0874024 1.1538086-5.7729492zm-23.0957032-33.1049805c1.3466797-1.1308594 3.3789063-1.1308594 4.7255859 0 2.1012573 1.7626343 1.9541016 5.3616943-.3549194 9.7218628-.6275635-.2293701-1.3018799-.3610229-2.0078735-.3610229s-1.380249.1316528-2.0078735.3610229c-2.3090821-4.3601685-2.4561768-7.9592285-.3549195-9.7218628zm2.362793 19.1103516c-2.1362305 0-3.8745117-1.7382813-3.8745117-3.8745117 0-2.1367188 1.7382813-3.875 3.8745117-3.875s3.8745117 1.7382813 3.8745117 3.875c0 2.1362304-1.7382812 3.8745117-3.8745117 3.8745117zm-14.3759766-9.4462891c-.305664-1.7314453.7104493-3.4912109 2.362793-4.0927734 2.5731812-.9365234 5.6195068.987793 8.2409668 5.1670532-1.0361328.8706665-1.7640381 2.0922241-2.0078735 3.4794922-4.9301758-.1806641-8.1199951-1.8528443-8.5958863-4.553772zm2.362793 15.2358398c-1.6523438-.6015625-2.668457-2.3608398-2.362793-4.0927734.4758911-2.7004395 3.6657104-4.3726196 8.5958862-4.5532837.2438354 1.387146.9716797 2.6085815 2.0077515 3.4790649-2.6214599 4.1784668-5.6644897 6.1034546-8.2408447 5.1669922zm14.3759766 5.5712891c-1.3466797 1.1308594-3.3789063 1.1308594-4.7255859 0-2.1011963-1.7626343-1.9541016-5.3617554.3549194-9.7218018.6276245.2293701 1.3018188.3609619 2.0078735.3609619.7059937 0 1.380249-.1315918 2.0078735-.3609619 2.30896 4.3600464 2.4561158 7.9591675.3549195 9.7218018zm7.6811523 11.3706055c-1.9643555.4165039-3.9956055.0600586-5.800293-1.0019531 1.2197266-1.7026367 2.9301758-2.8496094 4.8974609-3.2661133 1.96875-.4169922 3.996582-.0595703 5.8012695 1.0019531-1.2197264 1.7026367-2.9306639 2.8500976-4.8984374 3.2661133zm4.3325195-21.034668c.3051758 1.7319336-.7104492 3.4912109-2.362793 4.0927734-2.5800171.9351196-5.6210938-.9886475-8.2414551-5.1668701 1.0361328-.8705444 1.7640381-2.09198 2.0078735-3.479187 4.9301759.1806641 8.1200563 1.8528442 8.5963746 4.5532837zm-2.3632812-15.2358398c1.652832.6015625 2.668457 2.3613281 2.3632813 4.0927734-.4763184 2.7009277-3.6661987 4.3731079-8.5963745 4.553772-.2438354-1.3872681-.9717407-2.6087646-2.0078125-3.4794312 2.6215209-4.1781616 5.6645507-6.1035767 8.2409057-5.1671142z"/></svg>