<svg height="512pt" viewBox="0 -8 512.00086 512" width="512pt" xmlns="http://www.w3.org/2000/svg"><path d="m510.246094 457.546875-21.074219-40.613281c-7.460937-14.382813-21.457031-24.230469-37.511719-26.40625l-51.78125-7.023438v-16.460937h11.222656c3.253907 0 5.890626-2.640625 5.890626-5.894531v-12.109376c0-3.253906-2.636719-5.890624-5.890626-5.890624h-70.882812c-3.253906 0-5.890625 2.636718-5.890625 5.890624v12.109376c0 3.253906 2.636719 5.894531 5.890625 5.894531h11.222656v9.898437l-62.046875-8.414062c-2.0625-.238282-4.082031-.183594-6.023437.128906l-52.957032-109.609375c-5.648437 4.054687-12.351562 6.394531-19.25 6.777344l55.851563 115.273437c-1.269531 2.761719-1.980469 5.84375-1.980469 9.105469v73.390625c0 9.097656 7.375 16.46875 16.46875 16.46875h15.234375c-.675781-2.796875-1.046875-5.714844-1.046875-8.71875 0-20.394531 16.59375-36.988281 36.988282-36.988281 20.398437 0 36.992187 16.59375 36.992187 36.988281 0 3.003906-.371094 5.921875-1.050781 8.71875h41.523437c-.679687-2.796875-1.046875-5.714844-1.046875-8.71875 0-20.394531 16.589844-36.988281 36.988282-36.988281 20.394531 0 36.988281 16.59375 36.988281 36.988281 0 3.003906-.367188 5.921875-1.046875 8.71875h14.886718c.328126 0 .648438-.007812.96875-.027344 10.976563-.636718 17.429688-12.726562 12.363282-22.488281zm0 0"/><path d="m142.550781 43.601562c0 24.078126-19.519531 43.601563-43.601562 43.601563-24.078125 0-43.601563-19.523437-43.601563-43.601563 0-24.082031 19.523438-43.601562 43.601563-43.601562 24.082031 0 43.601562 19.519531 43.601562 43.601562zm0 0"/><path d="m226.25 238.75c5.097656-9.417969 1.59375-21.1875-7.824219-26.285156l-69.46875-37.601563-43.988281-52.390625 42.679688 31.859375v-22.941406c0-16.265625-13.183594-29.453125-29.453126-29.453125h-52.523437c-16.265625 0-29.453125 13.1875-29.453125 29.453125v151.117187h.195312c-.183593 1.714844.082032-2.777343-3.359374 78.882813l-31.964844 103.199219c-3.957032 12.785156 3.199218 26.363281 15.984375 30.324218 12.828125 3.972657 26.375-3.242187 30.324219-15.984374l32.890624-106.203126c.621094-2 .976563-4.070312 1.066407-6.160156l3.363281-80.429687c.050781-1.230469.007812-2.441407-.117188-3.628907h11.015626l30.621093 78.34375 15.542969 114.179688c1.804688 13.25 14.003906 22.558594 27.285156 20.75 13.265625-1.808594 22.554688-14.023438 20.75-27.289062l-15.933594-117.042969c-.261718-1.902344-.746093-3.765625-1.445312-5.554688l-24.792969-63.425781v-44.921875l-28.472656-15.414063c-2.96875-1.949218-7.703125-2.964843-10.539063-8.59375l-33.367187-66.125 46.363281 55.214844c1.566406 1.867188 3.472656 3.421875 5.621094 4.585938l72.710938 39.355468c9.421874 5.097657 21.1875 1.597657 26.289062-7.820312zm0 0"/><path d="m332.683594 446.6875c-13.597656 0-24.660156 11.058594-24.660156 24.65625s11.0625 24.660156 24.660156 24.660156 24.660156-11.0625 24.660156-24.660156-11.0625-24.65625-24.660156-24.65625zm0 32.875c-4.535156 0-8.222656-3.683594-8.222656-8.21875 0-4.53125 3.6875-8.21875 8.222656-8.21875 4.53125 0 8.21875 3.6875 8.21875 8.21875 0 4.535156-3.6875 8.21875-8.21875 8.21875zm0 0"/><path d="m446.085938 446.6875c-13.597657 0-24.660157 11.058594-24.660157 24.65625s11.0625 24.660156 24.660157 24.660156c13.597656 0 24.660156-11.0625 24.660156-24.660156s-11.0625-24.65625-24.660156-24.65625zm0 32.875c-4.535157 0-8.21875-3.683594-8.21875-8.21875 0-4.53125 3.683593-8.21875 8.21875-8.21875 4.53125 0 8.21875 3.6875 8.21875 8.21875 0 4.535156-3.6875 8.21875-8.21875 8.21875zm0 0"/></svg>