<svg height="512pt" viewBox="-27 0 512 512.00044" width="512pt" xmlns="http://www.w3.org/2000/svg"><path d="m147.355469 45.070312c0 24.890626-20.179688 45.070313-45.070313 45.070313s-45.070312-20.179687-45.070312-45.070313c0-24.890624 20.179687-45.070312 45.070312-45.070312s45.070313 20.179688 45.070313 45.070312zm0 0"/><path d="m287.292969 341.675781 83.136719-3.28125 14.066406 26.636719c2.261718 4.289062 8.582031 3.699219 10.015625-.9375l14.84375-48.054688c1.429687-4.632812-3.457031-8.683593-7.742188-6.421874l-22.453125 11.855468-58.671875-12.992187 5.226563-5.222657c3.535156-3.539062 3.535156-9.273437 0-12.808593l-51.257813-51.257813c-3.539062-3.535156-9.269531-3.535156-12.808593 0l-1.824219 1.828125c-1.585938-3.328125-3.730469-6.398437-6.375-9.105469-.09375-.097656-.1875-.199218-.285157-.296874-6.691406-6.691407-15.5-9.992188-24.289062-9.914063-.949219-.769531-1.972656-1.472656-3.085938-2.074219l-71.808593-38.871094-45.46875-54.152343 44.117187 32.933593v-23.714843c0-16.816407-13.632812-30.445313-30.449218-30.445313h-54.292969c-16.816407 0-30.445313 13.628906-30.445313 30.445313v156.210937h.132813c-.105469 1.347656.203125-5.140625-3.40625 80.816406l-33.039063 106.671876c-4.09375 13.21875 3.300782 27.253906 16.519532 31.347656 13.304687 4.117187 27.277343-3.386719 31.347656-16.523438l34-109.785156c.640625-2.066406 1.011718-4.207031 1.101562-6.363281 3.578125-87.183594 3.652344-83.191407 3.417969-86.167969h11.613281l31.367188 80.253906 16.070312 118.03125c1.855469 13.652344 14.429688 23.320313 28.203125 21.445313 13.710938-1.867188 23.3125-14.492188 21.449219-28.203125l-16.472656-120.992188c-.269532-1.964844-.765625-3.894531-1.488282-5.742187l-25.628906-65.566407v-45.703124l-29.433594-15.933594c-2.957031-1.9375-7.980468-3.09375-10.894531-8.882813l-34.492187-68.355469 47.925781 57.078126c1.621094 1.929687 3.589844 3.535156 5.808594 4.738281l64.371093 34.84375c-2.179687 11.125 1.316407 22.578125 9.28125 30.542969 2.816407 2.816406 6.007813 5.027343 9.417969 6.644531l-14.578125 14.578125c-3.539062 3.535156-3.539062 9.269531 0 12.804687l51.257813 51.257813c3.535156 3.539062 9.269531 3.539062 12.804687 0zm-60.859375-67.09375c-2.722656-1.046875-6.597656-1.597656-10.617188-5.617187-3.378906-3.378906-5.296875-7.816406-5.496094-12.558594 9.03125 2.804688 18.953126-1.109375 23.554688-9.609375 1.503906-2.78125 2.261719-5.757813 2.382812-8.71875 2.289063.921875 4.433594 2.304687 6.285157 4.160156 3.015625 3.011719 4.773437 6.804688 5.324219 10.734375zm0 0"/><path d="m458.65625 501.320312c-.34375-5.324218-5.003906-9.347656-10.335938-9.347656-5.0625 0-9.921874-2.011718-13.503906-5.59375l-35.0625-35.0625c-2.265625-2.269531-5.945312-2.269531-8.210937 0l-35.0625 35.0625c-3.582031 3.582032-8.441407 5.59375-13.503907 5.59375h-74.226562c-5.332031 0-9.988281 4.023438-10.335938 9.347656-.375 5.832032 4.242188 10.679688 9.996094 10.679688h180.253906c5.75 0 10.371094-4.847656 9.992188-10.679688zm0 0"/></svg>