<svg id="Capa_1" enable-background="new 0 0 512 512" height="512" viewBox="0 0 512 512" width="512" xmlns="http://www.w3.org/2000/svg"><path d="m78.421 337.38c0-40.618 21.64-77.273 56.202-97.004-3.775-11.588-5.681-23.667-5.681-36.066 0-40.576 20.669-77.551 54.594-98.847-.27-3.339-.405-6.671-.405-9.973 0-20.376 4.894-39.63 13.564-56.652-3.775-.42-7.6-.64-11.474-.64-55.59 0-100.816 45.226-100.816 100.816 0 1.999.062 4.012.185 6.031-26.372 17.335-42.365 46.61-42.365 78.673 0 9.098 1.272 17.98 3.793 26.547-26.589 16.231-43.118 45.117-43.118 77.032 0 49.811 40.524 90.335 90.335 90.335h19.239c-20.985-20.333-34.053-48.793-34.053-80.252z"/><path d="m293.38 481.759h-93.159v-32.595h-10.017c-6.82 0-13.498-.616-19.983-1.792v34.387h-170.221v30h512v-30h-188.62v-62.595h103.175c45.096 0 81.784-36.688 81.784-81.784 0-33.387-19.986-63.116-50.916-75.738l-14.662-5.983 6.768-14.316c5.5-11.633 8.289-24.093 8.289-37.033 0-32.814-18.199-62.463-47.494-77.377l-9.781-4.979 1.787-10.83c.862-5.226 1.299-10.486 1.299-15.633 0-52.52-42.729-95.249-95.249-95.249s-95.249 42.729-95.249 95.249c0 5.146.438 10.405 1.3 15.633l1.787 10.83-9.781 4.979c-29.295 14.914-47.494 44.563-47.494 77.377 0 12.939 2.789 25.399 8.288 37.034l6.767 14.316-14.661 5.983c-30.93 12.622-50.916 42.351-50.916 75.738 0 45.096 36.688 81.784 81.783 81.784h103.176zm-70.567-201.396 21.213-21.213 49.354 49.354v-56.999l-54.017-54.017 21.213-21.213 32.804 32.804v-52.626-1.314h30v1.314 52.055l32.233-32.233 21.213 21.213-53.446 53.446v56.999l48.783-48.782 21.213 21.213-69.996 69.995v68.783h-30v-68.212z"/></svg>