<svg id="Layer_1" height="512" viewBox="0 0 512 512" width="512" xmlns="http://www.w3.org/2000/svg" data-name="Layer 1"><path d="m477.331 205.581c-121.031 37.673-161.838 125.381-175.602 180.789-1.888-39.479-3.838-137.807 15.415-240.8a2.807 2.807 0 0 0 -4.9-2.334c-19.844 23.594-76.289 100.534-80.466 216.674 0 0-33.118-221.126-178.559-287.792a2.816 2.816 0 0 0 -3.595 4c20.5 34.046 102.084 176.016 102.972 280.742 0 0-55.511-53.629-118.526-59.44a2.814 2.814 0 0 0 -2.274 4.757c19.423 20.091 88.165 92.8 93.391 120.668l1.177 7.061h-41.2a5.27 5.27 0 0 0 -5.317 4.617 5.123 5.123 0 0 0 5.1 5.625h340.385a5.271 5.271 0 0 0 5.317-4.618 5.122 5.122 0 0 0 -5.1-5.624h-59.109c14.569-106.032 89.8-194.005 113.792-219.728a2.814 2.814 0 0 0 -2.901-4.597z"/></svg>