<svg xmlns="http://www.w3.org/2000/svg" height="512pt" version="1.1" viewBox="0 -46 512 512" width="512pt">
<g id="surface1">
<path d="M 15 30 L 64.691406 30 L 121 227.117188 L 121 275.527344 C 155.84375 287.953125 181 320.941406 181 360 C 181 370.570312 178.835938 380.570312 175.472656 390 L 367.53125 390 C 364.167969 380.570312 362 370.570312 362 360 C 362 321.351562 386.613281 288.601562 420.886719 275.875 C 418.113281 255.730469 402.699219 239.429688 381.964844 237.128906 L 147.660156 211.199219 L 90.429688 10.882812 C 88.582031 4.4375 82.695312 0 76 0 L 15 0 C 6.710938 0 0 6.710938 0 15 C 0 23.289062 6.710938 30 15 30 Z M 226 300 L 317 300 C 325.289062 300 332 306.710938 332 315 C 332 323.289062 325.289062 330 317 330 L 226 330 C 217.710938 330 211 323.289062 211 315 C 211 306.710938 217.710938 300 226 300 Z M 226 300 " style=" stroke:none;fill-rule:nonzero;fill:rgb(0%,0%,0%);fill-opacity:1;" />
<path d="M 91 300 C 57.863281 300 31 326.863281 31 360 C 31 393.136719 57.863281 420 91 420 C 124.136719 420 151 393.136719 151 360 C 151 326.863281 124.136719 300 91 300 Z M 91 375 C 82.714844 375 76 368.285156 76 360 C 76 351.714844 82.714844 345 91 345 C 99.285156 345 106 351.714844 106 360 C 106 368.285156 99.285156 375 91 375 Z M 91 375 " style=" stroke:none;fill-rule:nonzero;fill:rgb(0%,0%,0%);fill-opacity:1;" />
<path d="M 230.949219 133.417969 C 218.296875 132.054688 205.492188 136.113281 195.972656 144.640625 C 186.464844 153.148438 181 165.382812 181 178.152344 L 181 184.71875 L 362 204.730469 L 362 184.816406 C 362 161.863281 344.789062 142.644531 321.425781 140.039062 Z M 230.949219 133.417969 " style=" stroke:none;fill-rule:nonzero;fill:rgb(0%,0%,0%);fill-opacity:1;" />
<path d="M 452 300 C 418.863281 300 392 326.863281 392 360 C 392 393.136719 418.863281 420 452 420 C 485.136719 420 512 393.136719 512 360 C 512 326.863281 485.136719 300 452 300 Z M 452 375 C 443.714844 375 437 368.285156 437 360 C 437 351.714844 443.714844 345 452 345 C 460.285156 345 467 351.714844 467 360 C 467 368.285156 460.285156 375 452 375 Z M 452 375 " style=" stroke:none;fill-rule:nonzero;fill:rgb(0%,0%,0%);fill-opacity:1;" />
</g>
</svg>