<?xml version="1.0" encoding="iso-8859-1"?>
<!-- Generator: Adobe Illustrator 19.0.0, SVG Export Plug-In . SVG Version: 6.00 Build 0)  -->
<svg version="1.1" id="Capa_1" xmlns="http://www.w3.org/2000/svg" xmlns:xlink="http://www.w3.org/1999/xlink" x="0px" y="0px"
	 viewBox="0 0 512 512" style="enable-background:new 0 0 512 512;" xml:space="preserve">
<g>
	<g>
		<path d="M407,240.998c-57.891,0-105,47.109-105,105c0,22.104,6.812,43.257,19.878,61.406l73.125,98.588
			c2.827,3.779,7.28,6.006,11.997,6.006h0.015c4.717,0,9.17-2.241,11.997-6.021l76.084-102.909
			c11.06-16.992,16.904-36.724,16.904-57.07C512,288.107,464.891,240.998,407,240.998z M407,390.998c-24.814,0-45-20.186-45-45
			c0-24.814,20.186-45,45-45c24.814,0,45,20.186,45,45C452,370.812,431.814,390.998,407,390.998z"/>
	</g>
</g>
<g>
	<g>
		<path d="M22.72,2.137c-4.644-2.769-10.4-2.856-15.117-0.19C2.9,4.612,0,9.593,0,14.998v301c0,5.273,2.769,10.151,7.28,12.861
			L151,414.49V78.508L22.72,2.137z"/>
	</g>
</g>
<g>
	<g>
		<path d="M474.72,92.137L332,6.5v227.351c21.471-14.405,47.258-22.853,75-22.853s53.529,8.448,75,22.853V104.998
			C482,99.725,479.231,94.847,474.72,92.137z"/>
	</g>
</g>
<g>
	<g>
		<path d="M302,6.5L181,78.506V414.49l92.082-54.648c-0.474-4.598-1.082-9.175-1.082-13.845c0-31.816,11.521-60.707,30-83.806V6.5z"
			/>
	</g>
</g>
<g>
</g>
<g>
</g>
<g>
</g>
<g>
</g>
<g>
</g>
<g>
</g>
<g>
</g>
<g>
</g>
<g>
</g>
<g>
</g>
<g>
</g>
<g>
</g>
<g>
</g>
<g>
</g>
<g>
</g>
</svg>
