<svg id="Layer_1" enable-background="new 0 0 512 512" height="512" viewBox="0 0 512 512" width="512" xmlns="http://www.w3.org/2000/svg"><g><g><path d="m510.805 255.302c-1.924-5.691-5.952-10.292-11.344-12.955-5.39-2.661-11.494-3.065-17.188-1.137l-19.323 6.544c1.722-4.586 3.005-9.337 3.801-14.166l4.71-28.719c.548-3.339-.394-6.731-2.583-9.308-2.188-2.577-5.385-4.056-8.768-4.056h-33.799c-2.476-3.147-6.847-8.42-13.014-14.814-2.876-2.982-7.624-3.067-10.604-.192-2.981 2.875-3.067 7.623-.192 10.604 1.488 1.544 2.864 3.018 4.124 4.402h-282.263c23.08-21.844 77.337-64.998 145.746-64.998 48.255 0 86.141 21.698 109.425 39.901 3.263 2.549 7.976 1.973 10.528-1.29 2.551-3.264 1.974-7.976-1.29-10.528-3.444-2.692-7.195-5.455-11.223-8.219 34.454-34.049 40.066-80.224 40.966-94.269.211-3.27-1.068-6.399-3.51-8.586s-5.695-3.112-8.933-2.542c-54.187 9.669-77.592 45.875-87.652 77.288-6.945-1.963-14.206-3.572-21.768-4.726 12.975-14.253 20.796-28.045 23.958-34.199 1.498-2.913 1.574-6.292.209-9.27-1.365-2.977-3.972-5.124-7.172-5.894-35.431-8.436-67.121-1.829-94.188 19.63-10.261 8.135-18.597 17.511-25.166 26.437 4.159-29.51-1.719-54.911-4.277-63.972-.881-3.163-3.127-5.698-6.163-6.953-3.033-1.256-6.41-1.047-9.267.568-65.686 37.175-59.965 102.702-52.802 133.608-9.063 7.971-15.376 14.543-18.557 18.016h-53.616c-4.18 0-8.035 2.27-10.062 5.925-2.025 3.65-1.91 8.116.294 11.649l19.719 31.671c2.19 3.517 6.813 4.59 10.331 2.403 3.517-2.189 4.592-6.814 2.403-10.331l-16.385-26.32h400.082l-4.043 24.65c-1.376 8.347-4.571 16.401-9.246 23.457l-279.332 94.604c-14.55-4.081-26.892-13.306-34.904-26.176l-39.259-63.054c-2.19-3.518-6.815-4.592-10.331-2.403-3.517 2.189-4.592 6.815-2.403 10.331l39.259 63.054c6.65 10.681 15.69 19.349 26.334 25.464l-27.457 9.299c-11.971-13.875-29.661-22.683-49.381-22.683-35.968 0-65.229 29.26-65.229 65.226s29.261 65.227 65.228 65.227 65.229-29.26 65.229-65.227c0-.132-.009-.262-.01-.394l151.897-51.446c3.923-1.329 6.026-5.586 4.697-9.51s-5.585-6.028-9.51-4.697l-148.972 50.455c-1.214-4.931-2.994-9.637-5.261-14.058l42.663-14.449c.079-.025.157-.051.234-.079l283.749-96.099c.051-.018.102-.033.152-.052l36.99-12.528c1.899-.643 3.936-.507 5.733.379 1.795.887 3.136 2.418 3.774 4.308.27.797.406 1.611.406 2.42 0 3.211-2.05 6.062-5.097 7.097l-184.06 62.34c-3.923 1.329-6.026 5.586-4.697 9.51 1.328 3.924 5.585 6.026 9.51 4.697l7.865-2.664 47.707 110.317c5.169 11.955 16.926 19.68 29.952 19.68 16.94 0 31.231-13.23 32.535-30.12l10.88-140.885 55.123-18.67c9.141-3.101 15.281-11.661 15.281-21.302.002-2.443-.399-4.872-1.193-7.221zm-107.773-198.41c-1.936 17.247-9.468 54.272-38.53 81.185-9.47-5.555-20.108-10.81-31.819-15.161 8.421-26.221 27.463-56.221 70.349-66.024zm-98.534 20.66c-4.772 8.281-13.664 21.656-27.089 34.123-2.411-.101-4.839-.168-7.301-.168-24.572 0-47.29 5.153-67.297 12.587 17.095-25.497 49.285-56.411 101.687-46.542zm-127.5-21.645c3.608 15.644 8.512 49.775-6.223 82.944-8.385 4.627-15.949 9.412-22.563 13.986-4.791 3.313-9.252 6.619-13.378 9.839-5.777-31.285-4.294-77.484 42.164-106.769zm-111.77 402.593c-27.696 0-50.228-22.532-50.228-50.227s22.532-50.227 50.228-50.227 50.229 22.532 50.229 50.227c-.001 27.695-22.533 50.227-50.229 50.227zm350.533-16.274c-.705 9.126-8.427 16.274-17.58 16.274-7.038 0-13.392-4.174-16.185-10.634l-47.22-109.191 91.372-30.947z"/><path d="m65.228 377.951c-16.72 0-30.322 13.602-30.322 30.322s13.603 30.322 30.322 30.322c16.721 0 30.323-13.602 30.323-30.322s-13.603-30.322-30.323-30.322zm0 45.644c-8.449 0-15.322-6.874-15.322-15.322s6.873-15.322 15.322-15.322 15.323 6.874 15.323 15.322-6.874 15.322-15.323 15.322z"/></g></g></svg>