<svg id="Capa_1" enable-background="new 0 0 505.867 505.867" height="512" viewBox="0 0 505.867 505.867" width="512" xmlns="http://www.w3.org/2000/svg"><g><g><path d="m498.396 490.934h-52.61c-7.136-12.753-19.822-21.438-34.292-23.479-3.725-4.129-8.152-7.564-13.076-10.147 0-12.38.077-31.116.615-50.898.222 0 .427.021.657.021 27.487.287 52.204-16.691 61.801-42.45 1.108-3.355 1.058-6.985-.141-10.309-2.79-7.821-11.062-12.245-19.116-10.224-15.789 4.207-30.121 12.666-41.434 24.457.933-16.856 2.859-33.642 5.767-50.271.776-4.053-1.881-7.967-5.934-8.743s-7.967 1.881-8.743 5.934c-1.212 6.339-2.271 13.464-3.215 21.251-11.72-14.228-27.612-24.417-45.434-29.127-8.054-2.032-16.332 2.397-19.112 10.224-1.199 3.324-1.248 6.954-.141 10.309 9.59 25.72 34.259 42.682 61.707 42.429-.546 8.785-.999 18.147-1.345 28.269-.683 20.294-.82 40.183-.854 54.215-8.699-1.39-17.614-.238-25.673 3.317-19.123-7.386-40.727-4.111-56.802 8.61-11.37-10.584-27.264-14.812-42.39-11.274.021-13.464.128-29.515.606-46.668.218 0 .427.021.657.021 27.487.287 52.204-16.691 61.801-42.45 1.108-3.355 1.058-6.985-.141-10.309-2.799-7.818-11.078-12.232-19.129-10.198-15.789 4.207-30.121 12.666-41.434 24.457.933-16.856 2.859-33.642 5.767-50.271.776-4.053-1.881-7.967-5.934-8.743s-7.967 1.881-8.743 5.934c-1.212 6.339-2.271 13.464-3.214 21.251-11.72-14.228-27.612-24.417-45.434-29.127-8.054-2.029-16.33 2.398-19.112 10.224-1.199 3.324-1.248 6.954-.141 10.309 9.587 25.716 34.247 42.678 61.69 42.433-.546 8.781-.999 18.143-1.345 28.269-.7 20.491-.828 39.782-.854 55.466-15.317-3.941-31.581-1.386-44.952 7.061-13.408-9.695-30.937-11.592-46.109-4.99-10.776-4.17-22.556-5.009-33.814-2.408.021-13.52.124-29.673.606-46.924.218 0 .427.021.657.021 27.487.287 52.204-16.691 61.801-42.45 1.108-3.355 1.058-6.985-.141-10.309-2.798-7.806-11.06-12.219-19.103-10.203-15.789 4.207-30.121 12.666-41.434 24.457.933-16.856 2.859-33.642 5.767-50.271.776-4.053-1.881-7.967-5.934-8.743s-7.967 1.881-8.743 5.934c-1.212 6.339-2.271 13.464-3.214 21.251-11.72-14.228-27.612-24.417-45.434-29.127-8.054-2.027-16.329 2.4-19.112 10.224-1.199 3.324-1.248 6.954-.141 10.309 9.589 25.722 34.258 42.685 61.707 42.433-.546 8.781-.999 18.143-1.345 28.269-.781 22.809-.854 44.918-.854 60.845-7.364 3.991-13.779 9.524-18.809 16.222-9.725 2.161-18.361 7.717-24.358 15.671h-53.241c-4.126 0-7.471 3.345-7.471 7.471s3.345 7.471 7.471 7.471h490.925c4.126 0 7.471-3.345 7.471-7.471s-3.345-7.471-7.471-7.471zm-160.259-168.277c-.014-.184.015-.368.085-.538.143-.444.549-.751 1.016-.768.079.001.158.012.235.034 3.505.914 31.667 8.965 43.611 33.485-20.068-1.148-38.77-14.061-44.947-32.213zm107.871 35.228c.077-.021.156-.031.235-.03.466.015.872.321 1.016.764.065.167.094.346.085.525-6.181 18.164-24.879 31.078-44.952 32.222 11.949-24.534 40.111-32.555 43.616-33.481zm-247.678-35.228c-.014-.184.015-.368.085-.538.143-.444.549-.751 1.016-.768.079.001.158.012.235.034 3.505.914 31.667 8.965 43.611 33.485-20.068-1.148-38.77-14.061-44.947-32.213zm-139.807 0c-.014-.184.015-.368.085-.538.143-.444.549-.751 1.016-.768.079.001.158.012.235.034 3.505.914 31.667 8.965 43.611 33.485-20.068-1.148-38.77-14.061-44.947-32.213zm107.871 35.228c.076-.021.156-.031.235-.03.466.015.872.321 1.016.764.065.167.094.346.085.525-6.181 18.164-24.879 31.078-44.952 32.222 11.949-24.534 40.111-32.555 43.616-33.481zm139.807 0c.077-.021.156-.031.235-.03.466.015.872.321 1.016.764.065.167.094.346.085.525-6.181 18.164-24.879 31.078-44.952 32.222 11.949-24.534 40.111-32.555 43.616-33.481zm-221.557 133.049c1.871-.706 3.813-1.205 5.793-1.486 2.111-.298 3.994-1.485 5.174-3.261 11.751-17.797 34.723-24.369 54.109-15.479 2.121.965 4.57.888 6.625-.209 12.098-6.429 26.951-4.407 36.892 5.02 2.682 2.521 6.8 2.711 9.703.448 12.679-9.973 29.876-12.004 44.529-5.259 2.035.919 4.376.879 6.378-.111l.316-.132c13.738-7.242 30.692-3.582 40.217 8.683 1.22 1.558 3.009 2.568 4.973 2.809.248.038.581.081.768.098 2.208.174 4.379-.639 5.93-2.22 12.701-13.092 32.278-16.75 48.849-9.127 2.121.965 4.57.888 6.625-.209 13.747-7.291 30.746-3.642 40.29 8.649 1.301 1.664 3.246 2.699 5.353 2.847 7.515.523 14.601 3.69 20.004 8.939z"/><path d="m7.722 150.697 119.914 74.33c3.507 2.174 8.112 1.094 10.286-2.412.052-.084.103-.169.152-.256l36.516-64.431 63.21 1.417-.107.704c-.638 4.076 2.149 7.898 6.225 8.536.004.001.008.001.011.002.381.059.767.089 1.153.09 3.681-.006 6.809-2.69 7.377-6.327l7.855-50.621c.705-4.065-2.018-7.932-6.083-8.638s-7.932 2.018-8.638 6.083c-.015.087-.029.175-.041.262l-.218 1.392-39.47-8.068 13.661-24.115c1.978-3.489.847-7.918-2.561-10.032l-108.845-67.482c-3.409-2.114-7.879-1.159-10.126 2.164l-5.123 7.565c-28.22-15.872-63.964-5.862-79.836 22.359-14.06 24.999-7.969 56.501 14.398 74.456l-21.964 32.486c-2.312 3.414-1.418 8.057 1.996 10.369.085.057.171.113.258.167zm121.178 57.536-106.697-66.138 5.976-8.849 105.989 65.694zm-80.115-155.815c4.436-7.121 13.177-10.271 21.135-7.616l-19.496 28.845c-5.079-5.971-5.741-14.532-1.639-21.212zm194.236 73.165-2.442 15.752-.453 3.116-57.157-1.281 15.15-26.749zm-136.669-107.97 96.635 59.906-61.472 108.43-104.956-65.092 7.462-11.039c.047-.081 62.331-92.205 62.331-92.205zm-84.743 54.395c-5.535-23.504 9.032-47.045 32.536-52.58 10.248-2.413 21.023-1.048 30.345 3.846l-6.006 8.888c-16.463-7.911-36.221-.978-44.132 15.484-6.319 13.15-3.275 28.886 7.492 38.731l-6.015 8.896c-7.125-6.018-12.113-14.179-14.22-23.265z"/><path d="m149.809 134.539c3.586 2.036 8.143.78 10.179-2.806.002-.004.004-.007.006-.011l12.38-21.818c2.107-3.547.94-8.131-2.608-10.238-3.547-2.107-8.131-.94-10.238 2.608-.051.086-.101.174-.149.262l-12.379 21.817c-2.037 3.588-.78 8.148 2.808 10.185 0 .001.001.001.001.001z"/><path d="m271.503 165.301c4.105.021 7.449-3.289 7.471-7.394 0-.026 0-.051 0-.077 0-.487-.043-.972-.128-1.451-.128-.47-.256-.939-.427-1.409-.193-.445-.421-.873-.683-1.281-.279-.411-.593-.797-.939-1.153-2.984-2.774-7.603-2.774-10.587 0-.345.346-.646.733-.896 1.153-.292.397-.535.827-.726 1.281-.171.47-.299.939-.427 1.409-.085.479-.128.965-.128 1.451-.021 4.105 3.289 7.449 7.394 7.471z"/><path d="m305.484 191.854c4.126.009 7.478-3.329 7.487-7.454.009-4.126-3.329-7.478-7.454-7.487-4.126-.009-7.478 3.329-7.487 7.454-.004 1.91.723 3.749 2.033 5.139 1.398 1.506 3.365 2.358 5.421 2.348z"/><path d="m330.073 227.286c4.138-.011 7.483-3.374 7.472-7.512-.003-1.141-.266-2.265-.77-3.289v.043c-1.889-3.666-6.391-5.106-10.057-3.217-3.563 1.836-5.041 6.158-3.347 9.791 1.261 2.551 3.856 4.171 6.702 4.184z"/><path d="m347.234 254.735c-.413-.253-.841-.481-1.281-.683-.47-.171-.939-.299-1.409-.427-4.042-.806-7.971 1.816-8.778 5.858-.098.489-.146.986-.144 1.485 0 .487.043.972.128 1.451.128.47.256.939.427 1.409.2.449.443.878.726 1.281.251.419.552.806.896 1.153 1.418 1.38 3.314 2.16 5.293 2.177.487 0 .972-.043 1.451-.128.47-.128.939-.256 1.409-.427.449-.2.878-.443 1.281-.726.843-.502 1.547-1.206 2.049-2.049.283-.402.526-.831.726-1.281.171-.47.299-.939.427-1.409.085-.479.128-.965.128-1.451-.017-1.979-.797-3.875-2.177-5.293-.356-.347-.741-.662-1.152-.94z"/><path d="m276.071 136.059c4.131.008 7.486-3.334 7.494-7.464.008-4.131-3.334-7.486-7.464-7.494-.497-.001-.993.048-1.481.145-.47.128-.939.256-1.409.427-.449.2-.878.443-1.281.726-.419.251-.806.552-1.153.896-2.923 2.911-2.933 7.641-.022 10.565 1.408 1.413 3.322 2.205 5.316 2.199z"/><path d="m309.667 143.103c.772.252 1.579.382 2.391.384 4.119-.015 7.445-3.367 7.43-7.485-.015-4.119-3.367-7.445-7.485-7.43s-7.445 3.367-7.43 7.485c.011 3.198 2.061 6.032 5.094 7.046z"/><path d="m372.847 183.572c4.147.034 7.536-3.3 7.57-7.447s-3.3-7.536-7.447-7.57-7.536 3.3-7.57 7.447c-.015 1.861.661 3.661 1.898 5.052 1.398 1.602 3.422 2.521 5.549 2.518z"/><path d="m393.637 213.796c1.173.006 2.33-.272 3.372-.811 3.68-1.87 5.148-6.37 3.277-10.05-1.87-3.68-6.37-5.148-10.05-3.277-3.68 1.87-5.148 6.37-3.277 10.05 1.277 2.512 3.859 4.093 6.678 4.088z"/><path d="m340.958 158.343c1.207.824 2.637 1.256 4.098 1.238 4.121-.001 7.461-3.343 7.46-7.464s-3.343-7.461-7.464-7.46c-2.508.001-4.848 1.261-6.228 3.355-2.272 3.402-1.356 8.001 2.046 10.273.029.019.059.038.088.058z"/><path d="m400.766 240.135c0 .487.043.972.128 1.451.128.47.256.939.427 1.409.202.44.43.868.683 1.281.279.411.593.797.939 1.153 2.911 2.924 7.641 2.933 10.565.022 1.413-1.407 2.205-3.321 2.199-5.315 0-.487-.043-.972-.128-1.451-.128-.47-.256-.939-.427-1.409-.2-.449-.443-.878-.726-1.281-.502-.843-1.206-1.547-2.049-2.049-.402-.283-.831-.526-1.281-.726-.47-.171-.939-.299-1.409-.427-2.447-.449-4.961.314-6.745 2.049-.346.356-.66.742-.939 1.153-.253.413-.481.841-.683 1.281-.171.47-.299.939-.427 1.409-.084.478-.127.963-.127 1.45z"/></g></g></svg>