<svg id="Layer_1" height="512" viewBox="0 0 512 512" width="512" xmlns="http://www.w3.org/2000/svg"><path d="m168.717 68.979c8.055 7.68 21.915 17.045 44.953 26.598 13.111 5.431 22.289 14.609 27.346 27.158-1.311 6.744-1.874 13.486-1.874 19.48-12.174-6.744-28.095-18.543-35.587-36.524-1.874-4.683-7.305-6.93-12.175-5.058-4.683 2.06-7.118 7.493-5.057 12.175 9.74 23.413 29.219 38.022 44.578 46.263-8.615.75-20.603-1.873-36.337-12.736-34.088-23.974-31.278-58.063-25.847-77.356zm149.093 21.165c1.873-4.87 7.493-7.118 12.175-5.244 4.683 2.06 6.93 7.491 5.056 12.361-13.86 33.527-44.203 52.819-63.869 62.372 3.371.936 7.305 1.499 11.8 1.499 13.86 0 29.031-5.62 45.327-17.045 48.512-34.089 41.207-83.349 33.527-108.073-9.926 10.115-27.908 23.6-60.873 37.274-27.158 11.238-37.46 32.215-41.019 50.384-.186.561-.186 1.124-.374 1.685-1.499 7.493-1.686 14.235-1.499 19.666 16.295-7.303 47.012-24.348 59.749-54.879zm-57.877 154.712v-69.489c-2.996-1.124-5.431-2.435-7.679-3.745-2.996 1.685-6.555 3.371-11.051 4.683v66.679c.562.186 1.311.374 1.874.561 5.806 2.059 11.425 2.059 16.856 1.311zm83.35 79.978c-.188 4.495.187 9.739 2.248 15.92 5.432 15.92-3.559 28.47-11.613 39.708-8.615 11.613-15.92 21.728-10.676 36.524 9.365 26.409-16.856 44.203-41.58 57.689 37.273-6.181 71.549-24.911 96.461-53.943 23.413-27.159 36.71-60.312 38.958-95.898zm-37.648 98.52c-8.428-24.163 3.934-41.394 13.111-53.943 7.305-10.115 11.239-16.109 9.178-22.664-2.809-8.054-3.745-15.359-3.559-21.914h-100.206c.936 4.87.749 9.739.562 14.048-.375 7.866-.375 12.549 3.184 16.295 3.933 4.12 5.806 9.365 4.87 14.609-2.061 12.175-16.858 20.604-33.153 28.845-2.06 1.124-3.934 2.06-5.058 2.621-14.235 8.991-31.092 25.099-35.399 43.08 23.599 17.793 51.508 28.657 81.288 31.654 6.181-3.934 13.486-7.867 21.353-11.988 26.972-14.046 48.699-26.783 43.829-40.643zm-120.809-37.835c1.311-.936 3.559-2.06 6.368-3.559 12.736-6.369 20.229-11.239 22.476-14.423-8.616-9.739-8.054-21.165-7.679-29.594.374-7.491 0-10.863-2.061-13.11h-109.009c2.249 40.644 19.668 78.479 48.887 106.761 10.113-25.66 35.212-42.516 41.018-46.075zm165.013-94.213c-3.185-2.435-8.991-4.308-14.985-6.18-10.489-3.185-22.288-6.744-29.031-17.045-8.615-12.924-14.984-11.238-28.844-7.679-10.864 2.621-24.161 6.18-39.895.936-13.299-4.495-17.794-.936-25.099 4.683-6.743 5.057-15.171 11.613-29.78 11.613-11.613 0-23.788 15.546-31.654 28.47h211.838c-2.624-4.683-6.556-10.303-12.55-14.798z"/></svg>