<svg id="Layer_1" height="512" viewBox="0 0 512 512" width="512" xmlns="http://www.w3.org/2000/svg" data-name="Layer 1"><path d="m348.0853 375.93a7.875 7.875 0 1 1 -7.8753 7.875 7.874 7.874 0 0 1 7.8753-7.875zm-131.25 0a7.875 7.875 0 1 1 -7.8753 7.875 7.8739 7.8739 0 0 1 7.8753-7.875zm-22.2082-83.8427 7.8753 75.2841h-2.8877a10.5 10.5 0 0 0 -10.5 9.03l-9.2924 67.0947h-45.7276v-119.9085a273.3016 273.3016 0 0 1 60.5324-31.5zm175.2453-.2119a210.0766 210.0766 0 0 1 63.5776 34.019 43.8466 43.8466 0 0 1 16.8 33.602v84h-65.5723l-9.1877-67.0944a10.5 10.5 0 0 0 -10.5-9.03h-2.8875l7.77-75.496zm-87.6224-16.3787a236.2134 236.2134 0 0 1 62.0029 8.4527l-8.5577 83.4223h-106.89l-8.5576-83.2651a251.9772 251.9772 0 0 1 62.0024-8.61zm-212.6247-85.1552a7.8761 7.8761 0 0 1 7.8747 7.875v66.78a14.4393 14.4393 0 0 0 13.0723 14.4375v-81.2175a7.875 7.875 0 1 1 15.75 0v81.375h14.0177v-81.375a7.875 7.875 0 1 1 15.75 0v81.2177h.4724a14.437 14.437 0 0 0 14.4376-14.4375v-66.78a7.875 7.875 0 1 1 15.75 0v66.8313a30.2385 30.2385 0 0 1 -30.1876 30.2935h-12.9671v177.7138h-21.1577v-177.8711h-10.5a30.2418 30.2418 0 0 1 -30.1876-30.1875v-66.78a7.8762 7.8762 0 0 1 7.8753-7.875zm210.9971-32.604a687.0957 687.0957 0 0 1 85.2076 4.6211 53.8747 53.8747 0 0 1 .42 8.1381 84 84 0 0 1 -168 0 58.749 58.749 0 0 1 .42-8.61 723.6526 723.6526 0 0 1 81.9524-4.1494zm-37.9577-123.7408c22.3124 0 26.7748 5.7764 40.1624 5.7764s17.85-5.7764 40.1624-5.7764c21.1576 0 31.1852 46.0948 34.44 72.03 54.39 16.3277 72.8177 30.0816 72.66 41.2105 0 23.2592-11.4976-5.25-149.6246-5.25-140.123 0-149.6254 28.5092-149.6254 5.25 0-11.18 18.7953-25.0948 73.5-41.4224 4.4624-25.9868 17.3253-71.8184 38.3253-71.8184z" fill-rule="evenodd"/></svg>