<svg id="Capa_1" enable-background="new 0 0 607.662 607.662" height="512" viewBox="0 0 607.662 607.662" width="512" xmlns="http://www.w3.org/2000/svg"><g><g id="Page-1_19_"><g id="_x30_20---Medical-Appointment"><path id="Shape_137_" d="m111.424 192.459h-40.518c-5.594 0-10.129 4.535-10.129 10.129s4.535 10.129 10.129 10.129h40.518c5.594 0 10.129-4.535 10.129-10.129s-4.535-10.129-10.129-10.129z"/><path id="Shape_136_" d="m232.976 192.459h-40.518c-5.594 0-10.129 4.535-10.129 10.129s4.535 10.129 10.129 10.129h40.518c5.594 0 10.129-4.535 10.129-10.129s-4.534-10.129-10.129-10.129z"/><path id="Shape_135_" d="m314.012 212.717h40.518c5.594 0 10.129-4.535 10.129-10.129s-4.535-10.129-10.129-10.129h-40.518c-5.594 0-10.129 4.535-10.129 10.129s4.534 10.129 10.129 10.129z"/><path id="Shape_134_" d="m435.564 212.717h40.518c5.594 0 10.129-4.535 10.129-10.129s-4.535-10.129-10.129-10.129h-40.518c-5.594 0-10.129 4.535-10.129 10.129s4.535 10.129 10.129 10.129z"/><path id="Shape_133_" d="m111.424 273.494h-40.518c-5.594 0-10.129 4.535-10.129 10.129s4.535 10.129 10.129 10.129h40.518c5.594 0 10.129-4.535 10.129-10.129s-4.535-10.129-10.129-10.129z"/><path id="Shape_132_" d="m232.976 273.494h-40.518c-5.594 0-10.129 4.535-10.129 10.129s4.535 10.129 10.129 10.129h40.518c5.594 0 10.129-4.535 10.129-10.129s-4.534-10.129-10.129-10.129z"/><path id="Shape_131_" d="m111.424 354.529h-40.518c-5.594 0-10.129 4.535-10.129 10.129s4.535 10.129 10.129 10.129h40.518c5.594 0 10.129-4.535 10.129-10.129s-4.535-10.129-10.129-10.129z"/><path id="Shape_130_" d="m232.976 354.529h-40.518c-5.594 0-10.129 4.535-10.129 10.129s4.535 10.129 10.129 10.129h40.518c5.594 0 10.129-4.535 10.129-10.129.001-5.594-4.534-10.129-10.129-10.129z"/><path id="Shape_129_" d="m111.424 435.564h-40.518c-5.594 0-10.129 4.535-10.129 10.129s4.535 10.129 10.129 10.129h40.518c5.594 0 10.129-4.535 10.129-10.129s-4.535-10.129-10.129-10.129z"/><path id="Shape_128_" d="m232.976 435.564h-40.518c-5.594 0-10.129 4.535-10.129 10.129s4.535 10.129 10.129 10.129h40.518c5.594 0 10.129-4.535 10.129-10.129s-4.534-10.129-10.129-10.129z"/><path id="Shape_127_" d="m546.988 304.51v-233.604c0-16.783-13.605-30.388-30.388-30.388h-30.388v-10.13c-.001-16.783-13.606-30.388-30.389-30.388s-30.388 13.605-30.388 30.388v10.129h-60.776v-10.129c0-16.783-13.606-30.388-30.389-30.388s-30.388 13.605-30.388 30.388v10.129h-60.776v-10.129c0-16.783-13.605-30.388-30.388-30.388s-30.388 13.605-30.388 30.388v10.129h-60.776v-10.129c-.001-16.783-13.606-30.388-30.389-30.388s-30.388 13.605-30.388 30.388v10.129h-30.389c-16.783.001-30.388 13.606-30.388 30.389v425.434c0 16.783 13.605 30.388 30.388 30.388h259.313c35.919 57.536 102.293 88.595 169.481 79.308s122.648-57.188 141.612-122.31-2.108-135.309-53.806-179.216zm-101.294-274.122c0-5.594 4.535-10.129 10.129-10.129s10.129 4.535 10.129 10.129v40.518c0 5.594-4.535 10.129-10.129 10.129s-10.129-4.535-10.129-10.129zm-121.553 0c0-5.594 4.535-10.129 10.129-10.129s10.13 4.535 10.13 10.129v40.518c0 5.594-4.535 10.129-10.129 10.129s-10.129-4.535-10.129-10.129v-40.518zm-121.553 0c0-5.594 4.535-10.129 10.129-10.129s10.129 4.535 10.129 10.129v40.518c0 5.594-4.535 10.129-10.129 10.129s-10.129-4.535-10.129-10.129zm-121.553 0c0-5.594 4.535-10.129 10.129-10.129s10.129 4.535 10.129 10.129v40.518c0 5.594-4.535 10.129-10.129 10.129s-10.129-4.535-10.129-10.129zm-50.647 30.388h30.388v10.129c0 16.783 13.605 30.388 30.388 30.388s30.388-13.605 30.388-30.388v-10.129h60.776v10.129c0 16.783 13.605 30.388 30.388 30.388s30.388-13.605 30.388-30.388v-10.129h60.776v10.129c0 16.783 13.605 30.388 30.388 30.388s30.388-13.605 30.388-30.388v-10.129h60.776v10.129c0 16.783 13.605 30.388 30.388 30.388s30.388-13.605 30.388-30.388v-10.129h30.388c5.594 0 10.129 4.535 10.129 10.129v50.647h-506.466v-50.646c0-5.595 4.535-10.13 10.129-10.13zm0 445.694c-5.594 0-10.129-4.535-10.129-10.129v-354.529h506.47v147.889c-64.281-40.448-147.488-33.909-204.661 16.083s-74.755 131.583-43.246 200.686zm405.176 81.035c-83.915 0-151.941-68.026-151.941-151.941s68.026-151.941 151.941-151.941 151.941 68.026 151.941 151.941c-.095 83.875-68.065 151.846-151.941 151.941z"/><path id="Shape_126_" d="m496.341 405.176h-30.388v-30.388c0-16.783-13.605-30.388-30.388-30.388s-30.388 13.605-30.388 30.388v30.388h-30.388c-16.783 0-30.388 13.605-30.388 30.388s13.605 30.388 30.388 30.388h30.388v30.388c0 16.783 13.605 30.388 30.388 30.388s30.388-13.605 30.388-30.388v-30.388h30.388c16.783 0 30.388-13.605 30.388-30.388s-13.605-30.388-30.388-30.388zm0 40.517h-40.518c-5.594 0-10.129 4.535-10.129 10.129v40.518c0 5.594-4.535 10.129-10.129 10.129s-10.129-4.535-10.129-10.129v-40.518c0-5.594-4.535-10.129-10.129-10.129h-40.518c-5.594 0-10.129-4.535-10.129-10.129s4.535-10.129 10.129-10.129h40.518c5.594 0 10.129-4.535 10.129-10.129v-40.518c0-5.594 4.535-10.129 10.129-10.129s10.129 4.535 10.129 10.129v40.518c0 5.594 4.535 10.129 10.129 10.129h40.518c5.594 0 10.129 4.535 10.129 10.129s-4.535 10.129-10.129 10.129z"/></g></g></g></svg>