<svg id="Capa_1" enable-background="new 0 0 511.106 511.106" height="512" viewBox="0 0 511.106 511.106" width="512" xmlns="http://www.w3.org/2000/svg"><g><path d="m149.997 439.928c25.084 40.625 56.795 65.33 90.556 70.995v-109.449h-110.136c5.696 13.673 12.232 26.554 19.58 38.454z"/><path d="m407.613 271.183h-137.06v100.291h120.882c9.428-30.97 14.956-64.938 16.178-100.291z"/><path d="m270.553 401.474v109.449c33.76-5.665 65.472-30.37 90.556-70.995 7.348-11.9 13.885-24.781 19.58-38.455h-110.136z"/><path d="m391.435 140.893h-120.882v100.291h137.06c-1.222-35.354-6.75-69.322-16.178-100.291z"/><path d="m103.493 271.183c1.221 35.353 6.75 69.321 16.177 100.291h120.882v-100.291h-136.98z"/><path d="m437.632 241.183h73.474c-2.029-35.343-11.2-69.335-26.843-100.291h-61.609c8.732 31.389 13.842 65.27 14.978 100.291z"/><path d="m11.179 179.568c-6.19 19.814-9.962 40.472-11.178 61.615h53.607c-11.022-15.83-26.387-38.027-42.429-61.615z"/><path d="m184.478 151.104-60.693 90.08h116.768v-100.291h-49.916c-1.873 3.483-3.924 6.893-6.159 10.211z"/><path d="m190.689 31.733c9.63 18.101 14.371 38.345 13.71 58.543-.227 6.946-1.11 13.843-2.604 20.616h38.759v-110.262c-21.6 1.242-42.692 5.154-62.898 11.583 4.951 6.023 9.328 12.558 13.033 19.52z"/><path d="m412.92 110.893h53.473c-8.758-12.652-18.708-24.616-29.821-35.729-21.972-21.972-47.242-39.44-74.683-51.98 8.786 9.88 17.068 21.06 24.746 33.493 10.215 16.543 19.006 34.746 26.285 54.216z"/><path d="m73.474 271.183h-73.474c2.029 35.343 11.2 69.335 26.843 100.291h61.609c-8.732-31.389-13.842-65.269-14.978-100.291z"/><path d="m98.186 401.474h-53.473c8.758 12.652 18.708 24.616 29.821 35.729 21.972 21.972 47.242 39.44 74.683 51.98-8.786-9.88-17.068-21.06-24.745-33.493-10.216-16.544-19.007-34.747-26.286-54.216z"/><path d="m386.635 455.689c-7.677 12.433-15.959 23.613-24.746 33.493 27.441-12.54 52.711-30.009 74.683-51.98 11.113-11.113 21.063-23.076 29.821-35.729h-53.473c-7.279 19.47-16.07 37.673-26.285 54.216z"/><path d="m422.654 371.474h61.609c15.643-30.955 24.814-64.948 26.843-100.291h-73.474c-1.136 35.022-6.246 68.902-14.978 100.291z"/><path d="m361.109 72.438c-25.084-40.625-56.795-65.33-90.556-70.995v109.449h110.135c-5.695-13.673-12.231-26.554-19.579-38.454z"/><path d="m88.225 105.121c10.331 0 18.735-8.404 18.735-18.735 0-10.33-8.404-18.734-18.735-18.734-10.33 0-18.734 8.404-18.734 18.734-.001 10.331 8.404 18.735 18.734 18.735z"/><path d="m88.881 239.297 70.718-104.957c18.089-26.847 19.811-59.937 4.605-88.516s-43.609-45.641-75.981-45.641c-32.313 0-60.69 17.016-75.912 45.517-15.226 28.507-13.584 61.563 4.392 88.425 28.515 42.615 59.58 87.185 72.178 105.172zm-.656-201.645c26.873 0 48.735 21.862 48.735 48.734 0 26.873-21.862 48.735-48.735 48.735-26.872 0-48.734-21.862-48.734-48.735-.001-26.872 21.862-48.734 48.734-48.734z"/></g></svg>