<svg id="Layer_1" enable-background="new 0 0 480.436 480.436" height="512" viewBox="0 0 480.436 480.436" width="512" xmlns="http://www.w3.org/2000/svg"><path d="m417.057 88.333c-7.881 7.043 2.77 18.982 10.662 11.93 26.831-23.978 44.998-55.245 52.535-90.422 1.217-5.68-3.842-10.711-9.498-9.499-63.881 13.689-114.174 63.294-128.91 126.772l-27.343 27.343c14.451-46.952 7.965-98.879-19.511-141.341-3.15-4.866-10.283-4.867-13.434 0-36.01 55.652-36.011 127.572-.002 183.225 2.35 3.632 7.249 4.78 10.986 2.419 49.514-31.359 107.803-31.492 154.485-6.759-35.359 18.762-76.729 22.944-115.432 11.312-10.134-3.047-14.73 12.28-4.605 15.323 47.331 14.225 98.434 7.082 140.167-19.921 4.857-3.143 4.876-10.278 0-13.433-42.461-27.476-94.388-33.962-141.34-19.512 32.836-32.836 30.419-29.705 31.021-32.514 11.64-54.32 51.962-97.806 104.442-113.932-8.13 26.61-23.253 50.268-44.223 69.009zm-128.782-55.082c23.636 44.618 23.636 98.338 0 142.958-23.636-44.619-23.636-98.339 0-142.958zm122.093 258.013c-56.575-36.607-126.401-43.871-188.24-21.804l44.053-44.053c7.474-7.474-3.828-18.798-11.314-11.314l-44.053 44.053c22.067-61.839 14.804-131.666-21.803-188.242-3.15-4.866-10.283-4.867-13.434 0-32.974 50.96-42.752 113.782-26.826 172.358 2.773 10.2 18.216 6.015 15.439-4.198-13.591-49.988-6.949-103.319 18.104-148.296 35.283 63.331 33.176 141.652-6.304 203.2l-78.409 78.409c23.432-59.926 23.828-127.338-.22-188.203-3.882-9.83-18.769-3.965-14.881 5.879 26.951 68.211 21.17 145.195-15.108 208.482-44.645-77.851-42.407-174.953 6.718-250.872 5.742-8.873-7.683-17.579-13.434-8.692-53.71 83.009-54.853 189.754-3.446 273.78l-54.758 54.757c-7.475 7.475 3.83 18.796 11.314 11.314l58.642-58.642c75.819-48.694 172.562-50.792 250.177-6.282-60.804 34.796-135.098 41.564-201.308 17.813-9.948-3.57-15.367 11.486-5.402 15.06 73.12 26.231 157.294 18.58 226.425-26.153 4.857-3.143 4.876-10.278 0-13.433-70.182-45.412-157.336-53.25-233.38-23.517l74.533-74.533c69.941 42.301 158.281 40.974 226.914-3.436 4.859-3.145 4.877-10.28.001-13.435zm-212.558 6.717c59.778-33.303 132.92-33.302 192.696 0-59.776 33.302-132.918 33.304-192.696 0z"/></svg>