<?xml version="1.0" encoding="iso-8859-1"?>
<!-- Generator: Adobe Illustrator 19.0.0, SVG Export Plug-In . SVG Version: 6.00 Build 0)  -->
<svg version="1.1" id="Capa_1" xmlns="http://www.w3.org/2000/svg" xmlns:xlink="http://www.w3.org/1999/xlink" x="0px" y="0px"
	 viewBox="0 0 512 512" style="enable-background:new 0 0 512 512;" xml:space="preserve">
<g>
	<g>
		<path d="M68.677,472.334C76.024,495.325,97.336,512,122.428,512h267.143c25.091,0,46.403-16.675,53.75-39.666H68.677z"/>
	</g>
</g>
<g>
	<g>
		<path d="M429.521,82.265l-65.712-65.712c-2.71-2.711-5.641-5.101-8.762-7.181v81.295c0,1.85,1.51,3.351,3.361,3.351h80.145
			C436.113,89.766,433.082,85.826,429.521,82.265z"/>
	</g>
</g>
<g>
	<g>
		<path d="M446.064,124.023h-87.656c-18.403,0-33.366-14.963-33.366-33.356V0.02C324.652,0,324.252,0,323.862,0H122.425
			c-31.146,0-56.49,25.345-56.49,56.5v154.098h380.13L446.064,124.023L446.064,124.023z"/>
	</g>
</g>
<g>
	<g>
		<path d="M256.539,306.896h-13.721v70.762h13.721c9.25,0,13.875-5.138,13.875-15.417v-39.928
			C270.413,312.037,265.788,306.896,256.539,306.896z"/>
	</g>
</g>
<g>
	<g>
		<path d="M170.363,306.896h-15.262v32.528h15.262c9.25,0,13.876-5.138,13.876-15.417v-1.695
			C184.237,312.037,179.612,306.896,170.363,306.896z"/>
	</g>
</g>
<g>
	<g>
		<path d="M448.017,240.605H63.982c-20.901,0-37.905,17.004-37.905,37.905v125.912c0,20.901,17.004,37.905,37.905,37.905h384.034
			c20.901,0,37.906-17.004,37.906-37.905V278.51C485.922,257.609,468.918,240.605,448.017,240.605z M208.288,322.158h-0.001
			c0,12.232-3.469,21.251-10.406,27.056c-6.937,5.807-16.11,8.71-27.518,8.71h-15.262v33.299c0,2.365-1.183,4.189-3.546,5.473
			c-2.365,1.286-5.191,1.927-8.479,1.927c-3.291,0-6.116-0.641-8.48-1.927c-2.365-1.284-3.546-3.108-3.546-5.473v-98.049
			c0-1.951,0.821-3.647,2.466-5.087c1.643-1.438,3.801-2.158,6.475-2.158h31.912c10.996,0,19.811,2.852,26.439,8.557
			c6.629,5.704,9.944,14.672,9.944,26.901V322.158z M294.463,362.242c0,12.54-3.445,21.737-10.329,27.595
			c-6.887,5.858-16.086,8.788-27.595,8.788h-27.287c-3.084,0-5.603-0.718-7.554-2.158c-1.953-1.438-2.93-3.134-2.93-5.088v-98.203
			c0-1.951,0.976-3.647,2.93-5.087c1.951-1.438,4.471-2.158,7.554-2.158h27.287c11.509,0,20.709,2.93,27.595,8.788
			c6.884,5.858,10.329,15.058,10.329,27.595V362.242z M379.021,303.814c-1.286,2.057-3.06,3.084-5.318,3.084h-39.928v26.054h23.278
			c2.259,0,4.033,0.925,5.319,2.774c1.284,1.85,1.927,4.062,1.927,6.629c0,2.365-0.617,4.471-1.85,6.321s-3.033,2.774-5.396,2.774
			h-23.278v39.774c0,2.365-1.183,4.189-3.546,5.473c-2.365,1.286-5.191,1.927-8.479,1.927c-3.291,0-6.116-0.641-8.48-1.927
			c-2.365-1.284-3.546-3.108-3.546-5.473v-97.894c0-2.363,1.026-4.187,3.084-5.473c2.054-1.284,4.522-1.927,7.399-1.927h53.495
			c2.362,0,4.163,1.028,5.396,3.084c1.233,2.057,1.85,4.471,1.85,7.246C380.947,299.241,380.304,301.758,379.021,303.814z"/>
	</g>
</g>
<g>
</g>
<g>
</g>
<g>
</g>
<g>
</g>
<g>
</g>
<g>
</g>
<g>
</g>
<g>
</g>
<g>
</g>
<g>
</g>
<g>
</g>
<g>
</g>
<g>
</g>
<g>
</g>
<g>
</g>
</svg>
