<svg id="Line" enable-background="new 0 0 32 32" height="512" viewBox="0 0 32 32" width="512" xmlns="http://www.w3.org/2000/svg"><path d="m16.707 26.293c.391.391.391 1.023 0 1.414s-1.023.391-1.414 0l-11-11c-.391-.391-.391-1.023 0-1.414l11-11c.391-.391 1.023-.391 1.414 0s.391 1.023 0 1.414l-10.293 10.293z"/><path d="m27.707 5.707-10.293 10.293 10.293 10.293c.391.391.391 1.023 0 1.414s-1.023.391-1.414 0l-11-11c-.391-.391-.391-1.023 0-1.414l11-11c.391-.391 1.023-.391 1.414 0s.391 1.023 0 1.414z"/></svg>